<?xml version="1.0" encoding="UTF-8"?><svg id="logo" xmlns="http://www.w3.org/2000/svg" viewBox="0 0 456.14 59.37"><defs><style>.cls-1{fill:#ccc;}</style></defs><path d="M106.4,38.22h1.94v16.18h-1.94v-7.32h-7.85v7.32h-1.94v-16.18h1.94v7.1h7.85v-7.1Z"/><path d="M116.88,54.61c-1.74,0-3.12-.59-4.14-1.76-1.02-1.18-1.52-2.66-1.52-4.45s.52-3.32,1.57-4.52c1.05-1.21,2.41-1.81,4.09-1.81,1.84,0,3.26.59,4.26,1.78,1,1.18,1.5,2.69,1.5,4.51s-.51,3.3-1.54,4.49-2.43,1.78-4.22,1.78ZM116.88,43.74c-1.15,0-2.06.45-2.71,1.34-.66.9-.98,1.99-.98,3.29s.34,2.34,1.01,3.23c.67.89,1.57,1.33,2.69,1.33,1.22,0,2.15-.44,2.81-1.31.66-.87.98-1.96.98-3.25s-.31-2.45-.94-3.32c-.62-.87-1.58-1.31-2.86-1.31Z"/><path d="M125.43,54.4v-16.87h1.87v16.87h-1.87ZM129.77,48.01l4.94,6.38h-2.28l-4.9-6.38,4.78-5.78h2.26l-4.8,5.78Z"/><path d="M136.95,54.4v-16.87h1.87v16.87h-1.87ZM141.29,48.01l4.94,6.38h-2.28l-4.9-6.38,4.78-5.78h2.26l-4.8,5.78Z"/><path d="M148.73,44.77v-1.9c.91-.56,2.11-.84,3.6-.84,3.06,0,4.58,1.55,4.58,4.66v7.7h-1.87v-1.44c-.62,1.04-1.76,1.56-3.41,1.56-1.14,0-2.05-.34-2.75-1.01-.7-.67-1.04-1.52-1.04-2.54,0-1.17.44-2.08,1.33-2.72.89-.65,2.1-.97,3.64-.97h2.21v-.62c0-.96-.22-1.68-.65-2.17-.43-.49-1.16-.73-2.18-.73-1.3,0-2.45.34-3.46,1.03ZM155.02,48.78h-2.11c-1.02,0-1.79.2-2.3.6-.51.4-.77.9-.77,1.51s.2,1.1.6,1.48c.4.38.98.56,1.75.56.86,0,1.55-.24,2.06-.73.51-.49.77-1.11.77-1.86v-1.56Z"/><path d="M160.43,39.29c-.23-.23-.35-.52-.35-.88s.12-.65.35-.89c.23-.24.52-.36.88-.36s.65.12.89.36c.24.24.36.54.36.89s-.12.64-.36.88c-.24.23-.54.35-.89.35s-.64-.12-.88-.35ZM160.37,54.4v-12.17h1.9v12.17h-1.9Z"/><path d="M174.07,37.43h1.9v16.97h-1.9v-1.8c-.86,1.33-2.11,1.99-3.74,1.99s-2.88-.6-3.8-1.8c-.92-1.2-1.38-2.66-1.38-4.37,0-1.9.49-3.44,1.46-4.62.98-1.18,2.23-1.76,3.77-1.76s2.82.68,3.7,2.04v-6.65ZM170.5,52.86c.99,0,1.84-.37,2.53-1.1s1.04-1.91,1.04-3.53-.36-2.66-1.08-3.38c-.72-.72-1.51-1.08-2.38-1.08-1.01,0-1.84.4-2.51,1.21-.66.81-1,1.96-1,3.47,0,1.31.32,2.38.96,3.19.64.82,1.45,1.22,2.42,1.22Z"/><path d="M184.42,54.61c-1.74,0-3.12-.59-4.14-1.76-1.02-1.18-1.52-2.66-1.52-4.45s.52-3.32,1.57-4.52c1.05-1.21,2.41-1.81,4.09-1.81,1.84,0,3.26.59,4.26,1.78,1,1.18,1.5,2.69,1.5,4.51s-.51,3.3-1.54,4.49-2.43,1.78-4.22,1.78ZM184.42,43.74c-1.15,0-2.06.45-2.71,1.34-.66.9-.98,1.99-.98,3.29s.34,2.34,1.01,3.23c.67.89,1.57,1.33,2.69,1.33,1.22,0,2.15-.44,2.81-1.31.66-.87.98-1.96.98-3.25s-.31-2.45-.94-3.32c-.62-.87-1.58-1.31-2.86-1.31Z"/><path d="M208.78,48.3v-10.08h1.94v10.03c0,2.08-.52,3.66-1.57,4.73-1.05,1.07-2.51,1.61-4.38,1.61s-3.28-.52-4.32-1.57-1.56-2.57-1.56-4.57v-10.22h1.94v10.2c0,1.49.36,2.58,1.07,3.29s1.67,1.06,2.87,1.06c2.67,0,4.01-1.49,4.01-4.46Z"/><path d="M216.17,42.23v2.11c.72-1.52,2-2.28,3.84-2.28,1.18,0,2.13.36,2.83,1.08s1.06,1.68,1.06,2.88v8.38h-1.9v-7.87c0-.9-.23-1.58-.68-2.05-.46-.47-1.05-.71-1.79-.71-.91,0-1.7.35-2.36,1.06-.66.71-1,1.68-1,2.93v6.65h-1.87v-12.17h1.87Z"/><path d="M227.41,39.29c-.23-.23-.35-.52-.35-.88s.12-.65.35-.89c.23-.24.52-.36.88-.36s.65.12.89.36c.24.24.36.54.36.89s-.12.64-.36.88c-.24.23-.54.35-.89.35s-.64-.12-.88-.35ZM227.35,54.4v-12.17h1.9v12.17h-1.9Z"/><path d="M235.95,54.4l-4.25-12.17h1.97l1.68,5.14,1.78,5.54c.14-.69.74-2.54,1.8-5.54l1.73-5.14h1.97l-4.34,12.17h-2.33Z"/><path d="M253.85,52v1.78c-.94.5-2.1.74-3.46.74-1.84,0-3.32-.56-4.45-1.69-1.13-1.13-1.69-2.62-1.69-4.48s.5-3.46,1.51-4.58,2.3-1.68,3.89-1.68,2.73.49,3.62,1.46c.9.98,1.34,2.36,1.34,4.15,0,.51-.04.98-.12,1.42h-8.3c.14,1.2.6,2.12,1.37,2.76.77.64,1.78.96,3.02.96,1.36,0,2.45-.28,3.26-.84ZM252.72,47.53v-.48c0-1.01-.27-1.81-.82-2.41-.54-.6-1.3-.9-2.26-.9s-1.69.33-2.33.98c-.64.66-1.02,1.59-1.13,2.81h6.53Z"/><path d="M259.37,42.23v2.14c.64-1.5,1.74-2.26,3.31-2.26.29,0,.51.02.67.05v1.87c-.34-.11-.68-.17-1.03-.17-.85,0-1.55.39-2.11,1.18-.56.78-.84,1.69-.84,2.71v6.65h-1.9l.02-12.17h1.87Z"/><path d="M271.94,42.64v1.8c-.74-.45-1.74-.67-3.02-.67-.64,0-1.15.15-1.52.44s-.56.68-.56,1.14c0,.29.06.54.17.76.11.22.33.43.66.64s.57.35.72.42c.15.07.48.22,1,.44,1.02.42,1.82.89,2.4,1.42.58.53.86,1.24.86,2.14,0,1.04-.36,1.86-1.09,2.47-.73.61-1.72.91-2.99.91-1.47,0-2.66-.25-3.58-.74v-1.85c1.07.64,2.22.96,3.46.96.74,0,1.3-.14,1.68-.43.38-.29.58-.68.58-1.18,0-.58-.21-1.02-.64-1.34s-1.13-.68-2.12-1.08c-.91-.35-1.64-.79-2.2-1.32-.55-.53-.83-1.24-.83-2.14,0-1.01.38-1.81,1.14-2.41.76-.6,1.71-.9,2.84-.9,1.26,0,2.28.18,3.05.53Z"/><path d="M275.36,39.29c-.23-.23-.35-.52-.35-.88s.12-.65.35-.89c.23-.24.52-.36.88-.36s.65.12.89.36.36.54.36.89-.12.64-.36.88c-.24.23-.54.35-.89.35s-.64-.12-.88-.35ZM275.3,54.4v-12.17h1.9v12.17h-1.9Z"/><path d="M283.42,43.77v7.13c0,1.3.61,1.94,1.82,1.94.62,0,1.18-.18,1.66-.55v1.8c-.53.29-1.12.43-1.78.43-2.4,0-3.6-1.22-3.6-3.67v-7.08h-1.94v-1.54h1.94v-3.02h1.9v3.02h3.36v1.54h-3.36Z"/><path d="M293.02,54.09l-4.92-11.86h2.14l1.58,4.01,2.14,5.52c.13-.42.77-2.26,1.92-5.52l1.42-4.01h2.04l-4.39,11.86c-.62,1.65-1.36,2.81-2.22,3.48-.86.67-1.84,1.01-2.94,1.01-.42,0-.75-.04-1.01-.12v-1.7c.24.06.51.1.82.1,1.62,0,2.76-.92,3.43-2.76Z"/><path d="M47.15,6.98v2.38c-1.14-.75-2.5-1.12-4.09-1.12-1.14,0-2.04.27-2.72.8-.67.53-1.01,1.23-1.01,2.09,0,.45.09.85.27,1.2.18.35.49.69.94.99.45.31.83.54,1.15.7.32.16.81.39,1.48.69.63.28,1.12.5,1.46.66.34.16.77.41,1.3.76.53.35.93.68,1.2,1.01.27.33.51.76.73,1.29.21.53.32,1.11.32,1.72,0,1.66-.57,2.94-1.71,3.85-1.14.91-2.6,1.36-4.4,1.36-1.98,0-3.66-.4-5.04-1.2v-2.44c1.36,1.03,3.02,1.54,4.98,1.54,1.18,0,2.1-.26,2.77-.78.67-.52,1.01-1.28,1.01-2.27,0-.41-.08-.78-.24-1.11-.16-.33-.42-.62-.78-.9-.36-.27-.71-.49-1.04-.67-.33-.18-.77-.4-1.33-.66-.11-.06-.28-.13-.5-.22-.8-.35-1.41-.64-1.83-.87-.42-.22-.92-.56-1.48-.99-.57-.44-.98-.95-1.25-1.53-.26-.58-.39-1.25-.39-2.02,0-1.6.57-2.86,1.72-3.77,1.15-.91,2.59-1.36,4.33-1.36,1.62,0,3.01.29,4.14.87Z"/><path d="M54.88,12.75v8.32c0,1.51.71,2.27,2.13,2.27.73,0,1.37-.21,1.93-.64v2.1c-.62.34-1.31.5-2.07.5-2.8,0-4.2-1.43-4.2-4.28v-8.26h-2.27v-1.79h2.27v-3.53h2.21v3.53h3.92v1.79h-3.92Z"/><path d="M64.34,10.96v2.49c.75-1.75,2.03-2.63,3.86-2.63.34,0,.6.02.78.06v2.18c-.39-.13-.79-.2-1.2-.2-.99,0-1.81.46-2.46,1.37-.65.91-.98,1.97-.98,3.16v7.76h-2.21l.03-14.2h2.18Z"/><path d="M80.11,10.96h2.21v14.2h-2.21v-2.46c-.75,1.75-2.23,2.63-4.45,2.63-1.4,0-2.51-.42-3.32-1.25-.81-.83-1.22-1.95-1.22-3.35v-9.77h2.21v9.21c0,1.03.26,1.81.78,2.35.52.54,1.23.81,2.13.81,1.18,0,2.11-.41,2.81-1.23s1.05-1.93,1.05-3.33v-7.81Z"/><path d="M87.86,18.13c.02,1.53.49,2.8,1.4,3.82.91,1.02,2.21,1.53,3.89,1.53,1.08,0,2.09-.31,3.02-.92v2.1c-.9.54-2,.81-3.3.81-2.24,0-4.02-.71-5.33-2.14-1.32-1.43-1.97-3.17-1.97-5.22s.66-3.75,1.97-5.21c1.32-1.46,3.11-2.18,5.39-2.18,1.21,0,2.3.26,3.25.78v2.1c-.86-.58-1.87-.87-3.02-.87-1.61,0-2.89.52-3.85,1.55s-1.44,2.32-1.44,3.85Z"/><path d="M102.65,12.75v8.32c0,1.51.71,2.27,2.13,2.27.73,0,1.37-.21,1.93-.64v2.1c-.62.34-1.31.5-2.07.5-2.8,0-4.2-1.43-4.2-4.28v-8.26h-2.27v-1.79h2.27v-3.53h2.21v3.53h3.92v1.79h-3.92Z"/><path d="M118.74,10.96h2.21v14.2h-2.21v-2.46c-.75,1.75-2.23,2.63-4.45,2.63-1.4,0-2.51-.42-3.32-1.25-.81-.83-1.22-1.95-1.22-3.35v-9.77h2.21v9.21c0,1.03.26,1.81.78,2.35.52.54,1.23.81,2.13.81,1.18,0,2.11-.41,2.81-1.23s1.05-1.93,1.05-3.33v-7.81Z"/><path d="M126.53,10.96v2.49c.75-1.75,2.03-2.63,3.86-2.63.34,0,.6.02.78.06v2.18c-.39-.13-.79-.2-1.2-.2-.99,0-1.81.46-2.46,1.37-.65.91-.98,1.97-.98,3.16v7.76h-2.21l.03-14.2h2.18Z"/><path d="M143.13,22.36v2.07c-1.1.58-2.45.87-4.03.87-2.15,0-3.88-.66-5.19-1.97-1.32-1.32-1.97-3.06-1.97-5.22s.59-4.04,1.76-5.35c1.18-1.31,2.69-1.96,4.54-1.96s3.18.57,4.23,1.71,1.57,2.75,1.57,4.84c0,.6-.05,1.15-.14,1.65h-9.69c.17,1.4.7,2.47,1.6,3.22s2.07,1.12,3.53,1.12c1.59,0,2.86-.33,3.81-.98ZM141.82,17.15v-.56c0-1.18-.32-2.11-.95-2.81-.64-.7-1.51-1.05-2.63-1.05s-1.97.38-2.72,1.15c-.75.77-1.19,1.86-1.32,3.28h7.62Z"/><path d="M156.26,5.36h2.21v19.8h-2.21v-2.1c-1.01,1.55-2.46,2.32-4.37,2.32s-3.36-.7-4.44-2.1c-1.07-1.4-1.61-3.1-1.61-5.1,0-2.22.57-4.02,1.71-5.39,1.14-1.37,2.6-2.06,4.4-2.06s3.29.79,4.31,2.38v-7.76ZM152.09,23.36c1.16,0,2.14-.43,2.95-1.29.81-.86,1.22-2.23,1.22-4.12s-.42-3.11-1.26-3.95c-.84-.84-1.76-1.26-2.77-1.26-1.18,0-2.15.47-2.93,1.41-.77.94-1.16,2.29-1.16,4.05,0,1.53.37,2.77,1.12,3.72.75.95,1.69,1.43,2.83,1.43Z"/><path d="M182.08,25.16l-1.65-4.96h-7.98l-1.68,4.96h-2.44l6.58-18.87h3.14l6.47,18.87h-2.44ZM173.09,18.27h6.69l-.36-1.09-2.94-9.07c-.22.8-1.23,3.84-3.02,9.1l-.36,1.06Z"/><path d="M189.44,10.96v2.49c.75-1.75,2.03-2.63,3.86-2.63.34,0,.6.02.78.06v2.18c-.39-.13-.79-.2-1.2-.2-.99,0-1.81.46-2.46,1.37-.65.91-.98,1.97-.98,3.16v7.76h-2.21l.03-14.2h2.18Z"/><path d="M200.14,12.75v8.32c0,1.51.71,2.27,2.13,2.27.73,0,1.37-.21,1.93-.64v2.1c-.62.34-1.31.5-2.07.5-2.8,0-4.2-1.43-4.2-4.28v-8.26h-2.27v-1.79h2.27v-3.53h2.21v3.53h3.92v1.79h-3.92Z"/><path d="M207.6,7.53c-.27-.27-.41-.61-.41-1.02s.14-.76.41-1.04c.27-.28.61-.42,1.02-.42s.76.14,1.04.42c.28.28.42.63.42,1.04s-.14.75-.42,1.02c-.28.27-.63.41-1.04.41s-.75-.13-1.02-.41ZM207.53,25.16v-14.2h2.21v14.2h-2.21Z"/><path d="M224.36,10.96v14.2h-2.21v-12.4h-4.76v12.4h-2.21v-12.4h-2.44v-1.79h2.44v-1.32c0-1.38.37-2.47,1.12-3.28.75-.8,1.8-1.2,3.16-1.2s2.62.32,3.89.95v2.04c-1.31-.67-2.58-1.01-3.81-1.01-1.44,0-2.16.84-2.16,2.52v1.29h6.97Z"/><path d="M229.79,18.13c.02,1.53.49,2.8,1.4,3.82.91,1.02,2.21,1.53,3.89,1.53,1.08,0,2.09-.31,3.02-.92v2.1c-.9.54-2,.81-3.3.81-2.24,0-4.02-.71-5.33-2.14-1.32-1.43-1.97-3.17-1.97-5.22s.66-3.75,1.97-5.21c1.32-1.46,3.11-2.18,5.39-2.18,1.21,0,2.3.26,3.25.78v2.1c-.86-.58-1.87-.87-3.02-.87-1.61,0-2.89.52-3.85,1.55s-1.44,2.32-1.44,3.85Z"/><path d="M241.7,7.53c-.27-.27-.41-.61-.41-1.02s.13-.76.41-1.04c.27-.28.61-.42,1.02-.42s.76.14,1.04.42c.28.28.42.63.42,1.04s-.14.75-.42,1.02c-.28.27-.63.41-1.04.41s-.75-.13-1.02-.41ZM241.63,25.16v-14.2h2.21v14.2h-2.21Z"/><path d="M248.07,13.93v-2.21c1.06-.65,2.46-.98,4.2-.98,3.57,0,5.35,1.81,5.35,5.43v8.99h-2.18v-1.68c-.73,1.21-2.05,1.82-3.98,1.82-1.33,0-2.39-.39-3.21-1.18-.81-.78-1.22-1.77-1.22-2.97,0-1.36.52-2.42,1.55-3.18,1.04-.76,2.45-1.13,4.24-1.13h2.58v-.73c0-1.12-.25-1.96-.76-2.53-.5-.57-1.35-.85-2.55-.85-1.51,0-2.86.4-4.03,1.2ZM255.41,18.6h-2.46c-1.19,0-2.09.23-2.69.7-.6.47-.9,1.05-.9,1.76s.23,1.28.7,1.72c.47.44,1.15.66,2.04.66,1.01,0,1.81-.28,2.41-.85.6-.57.9-1.29.9-2.17v-1.82Z"/><path d="M261.37,25.16V5.36h2.21v19.8h-2.21Z"/><path d="M274.9,25.16V6.28h2.27v18.87h-2.27Z"/><path d="M283.44,10.96v2.46c.84-1.77,2.33-2.66,4.48-2.66,1.38,0,2.48.42,3.3,1.26.82.84,1.23,1.96,1.23,3.36v9.77h-2.21v-9.18c0-1.04-.27-1.84-.8-2.39-.53-.55-1.23-.83-2.09-.83-1.06,0-1.98.41-2.76,1.23-.78.82-1.16,1.96-1.16,3.42v7.76h-2.18v-14.2h2.18Z"/><path d="M299.14,12.75v8.32c0,1.51.71,2.27,2.13,2.27.73,0,1.37-.21,1.93-.64v2.1c-.62.34-1.31.5-2.07.5-2.8,0-4.2-1.43-4.2-4.28v-8.26h-2.27v-1.79h2.27v-3.53h2.21v3.53h3.92v1.79h-3.92Z"/><path d="M316.5,22.36v2.07c-1.1.58-2.45.87-4.03.87-2.15,0-3.88-.66-5.19-1.97s-1.97-3.06-1.97-5.22.59-4.04,1.76-5.35,2.69-1.96,4.54-1.96,3.18.57,4.23,1.71c1.05,1.14,1.57,2.75,1.57,4.84,0,.6-.05,1.15-.14,1.65h-9.69c.17,1.4.7,2.47,1.6,3.22.9.75,2.07,1.12,3.53,1.12,1.59,0,2.86-.33,3.81-.98ZM315.19,17.15v-.56c0-1.18-.32-2.11-.95-2.81-.63-.7-1.51-1.05-2.63-1.05s-1.97.38-2.72,1.15c-.75.77-1.19,1.86-1.32,3.28h7.62Z"/><path d="M320.59,25.16V5.36h2.21v19.8h-2.21Z"/><path d="M326.83,25.16V5.36h2.21v19.8h-2.21Z"/><path d="M333.15,7.53c-.27-.27-.41-.61-.41-1.02s.13-.76.41-1.04c.27-.28.61-.42,1.02-.42s.76.14,1.04.42c.28.28.42.63.42,1.04s-.14.75-.42,1.02c-.28.27-.63.41-1.04.41s-.75-.13-1.02-.41ZM333.08,25.16v-14.2h2.21v14.2h-2.21Z"/><path d="M348.73,10.96h2.21v13.05c0,2.17-.6,3.79-1.79,4.89-1.19,1.09-2.73,1.64-4.62,1.64-1.72,0-3.18-.29-4.4-.87v-2.21c1.19.69,2.59,1.04,4.2,1.04,1.36,0,2.44-.36,3.22-1.09.78-.73,1.18-1.87,1.18-3.42v-1.6c-.93,1.61-2.32,2.41-4.17,2.41-1.62,0-3.01-.6-4.16-1.79-1.15-1.19-1.72-2.86-1.72-4.98s.53-3.85,1.6-5.21c1.06-1.36,2.45-2.04,4.17-2.04,1.94,0,3.37.85,4.28,2.55v-2.35ZM344.81,22.83c1.03,0,1.94-.4,2.73-1.19s1.19-1.97,1.19-3.54c0-1.81-.38-3.15-1.15-4.03-.77-.88-1.65-1.32-2.66-1.32-1.21,0-2.17.48-2.88,1.44-.71.96-1.06,2.22-1.06,3.77s.39,2.8,1.18,3.63,1.67,1.25,2.66,1.25Z"/><path d="M364.52,22.36v2.07c-1.1.58-2.45.87-4.03.87-2.15,0-3.88-.66-5.19-1.97-1.32-1.32-1.97-3.06-1.97-5.22s.59-4.04,1.76-5.35c1.18-1.31,2.69-1.96,4.54-1.96s3.18.57,4.23,1.71c1.04,1.14,1.57,2.75,1.57,4.84,0,.6-.05,1.15-.14,1.65h-9.69c.17,1.4.7,2.47,1.6,3.22.9.75,2.07,1.12,3.53,1.12,1.59,0,2.86-.33,3.81-.98ZM363.2,17.15v-.56c0-1.18-.32-2.11-.95-2.81-.64-.7-1.51-1.05-2.63-1.05s-1.97.38-2.72,1.15c-.75.77-1.19,1.86-1.32,3.28h7.62Z"/><path d="M370.26,10.96v2.46c.84-1.77,2.33-2.66,4.48-2.66,1.38,0,2.48.42,3.3,1.26.82.84,1.23,1.96,1.23,3.36v9.77h-2.21v-9.18c0-1.04-.27-1.84-.8-2.39-.53-.55-1.23-.83-2.09-.83-1.06,0-1.98.41-2.76,1.23-.78.82-1.16,1.96-1.16,3.42v7.76h-2.18v-14.2h2.18Z"/><path d="M383.95,18.13c.02,1.53.49,2.8,1.4,3.82.92,1.02,2.21,1.53,3.89,1.53,1.08,0,2.09-.31,3.02-.92v2.1c-.9.54-2,.81-3.3.81-2.24,0-4.02-.71-5.33-2.14s-1.97-3.17-1.97-5.22.66-3.75,1.97-5.21,3.11-2.18,5.39-2.18c1.21,0,2.3.26,3.25.78v2.1c-.86-.58-1.87-.87-3.02-.87-1.61,0-2.89.52-3.85,1.55-.96,1.04-1.44,2.32-1.44,3.85Z"/><path d="M405.76,22.36v2.07c-1.1.58-2.45.87-4.03.87-2.15,0-3.88-.66-5.19-1.97s-1.97-3.06-1.97-5.22.59-4.04,1.76-5.35,2.69-1.96,4.54-1.96,3.18.57,4.23,1.71c1.05,1.14,1.57,2.75,1.57,4.84,0,.6-.05,1.15-.14,1.65h-9.69c.17,1.4.7,2.47,1.6,3.22.9.75,2.07,1.12,3.53,1.12,1.59,0,2.86-.33,3.81-.98ZM404.45,17.15v-.56c0-1.18-.32-2.11-.95-2.81-.63-.7-1.51-1.05-2.63-1.05s-1.97.38-2.72,1.15c-.75.77-1.19,1.86-1.32,3.28h7.62Z"/><path d="M419.23,23.11h8.04v2.04h-10.3V6.28h2.27v16.83Z"/><path d="M430.24,13.93v-2.21c1.06-.65,2.46-.98,4.2-.98,3.57,0,5.35,1.81,5.35,5.43v8.99h-2.18v-1.68c-.73,1.21-2.05,1.82-3.98,1.82-1.33,0-2.39-.39-3.21-1.18-.81-.78-1.22-1.77-1.22-2.97,0-1.36.52-2.42,1.55-3.18,1.04-.76,2.45-1.13,4.24-1.13h2.58v-.73c0-1.12-.25-1.96-.76-2.53-.5-.57-1.35-.85-2.55-.85-1.51,0-2.86.4-4.03,1.2ZM437.57,18.6h-2.46c-1.19,0-2.09.23-2.69.7-.6.47-.9,1.05-.9,1.76s.23,1.28.7,1.72c.47.44,1.15.66,2.04.66,1.01,0,1.81-.28,2.41-.85.6-.57.9-1.29.9-2.17v-1.82Z"/><path d="M445.72,5.36v7.73c1.03-1.57,2.46-2.35,4.31-2.35s3.26.69,4.4,2.06c1.14,1.37,1.71,3.17,1.71,5.39,0,2-.54,3.7-1.61,5.1s-2.55,2.1-4.44,2.1-3.36-.77-4.37-2.32v2.1h-2.21V5.36h2.21ZM449.89,23.36c1.14,0,2.08-.48,2.83-1.43.75-.95,1.12-2.19,1.12-3.72,0-1.75-.39-3.1-1.16-4.05-.78-.94-1.75-1.41-2.93-1.41-1.01,0-1.93.42-2.77,1.26s-1.26,2.16-1.26,3.95c0,1.89.41,3.26,1.22,4.12.81.86,1.8,1.29,2.95,1.29Z"/><path d="M87.99,58.14h-17.94s-.03-.01-.03-.03v-23.65s.01-.03.03-.03h5.94s.03.01.03.03v17.65s.01.03.03.03h11.94s.03.01.03.03v5.94s-.01.03-.03.03Z"/><path d="M52.59,58.14c-.77,0-1.54-.29-2.12-.88l-12.73-12.73c-1.17-1.17-3.07-1.17-4.24,0l-12.65,12.65c-.93.93-2.38,1.26-3.55.65-1.9-1.01-2.16-3.42-.77-4.81l12.73-12.73c3.51-3.51,9.22-3.51,12.73,0l12.6,12.6c1.14,1.14,1.33,3.01.27,4.22-.6.69-1.43,1.03-2.26,1.03Z"/><path d="M4.21,59.36L0,55.16s-.01-.03,0-.04l16.93-16.93s.01-.03,0-.04L0,21.22s-.01-.03,0-.04L21.18,0s.03-.01.04,0l4.2,4.2s.01.03,0,.04L8.49,21.18s-.01.03,0,.04l16.93,16.93s.01.03,0,.04L4.25,59.36s-.03.01-.04,0Z"/><path d="M62.38,58.14c-1.64-.07-2.87-1.55-2.87-3.19v-17.32c0-1.64,1.23-3.12,2.87-3.19,1.72-.08,3.13,1.3,3.13,3v17.71c0,1.7-1.42,3.07-3.13,3Z"/><circle class="cls-1" cx="35.27" cy="54.25" r="4"/></svg>