<?xml version="1.0" encoding="UTF-8"?><svg id="logo" xmlns="http://www.w3.org/2000/svg" viewBox="0 0 471.45 59.37"><defs><style>.cls-1{fill:#ccc;}</style></defs><path d="M87.99,58.14h-17.94s-.03-.01-.03-.03v-23.65s.01-.03.03-.03h5.94s.03.01.03.03v17.65s.01.03.03.03h11.94s.03.01.03.03v5.94s-.01.03-.03.03Z"/><path d="M52.59,58.14c-.77,0-1.54-.29-2.12-.88l-12.73-12.73c-1.17-1.17-3.07-1.17-4.24,0l-12.65,12.65c-.93.93-2.38,1.26-3.55.65-1.9-1.01-2.16-3.42-.77-4.81l12.73-12.73c3.51-3.51,9.22-3.51,12.73,0l12.6,12.6c1.14,1.14,1.33,3.01.27,4.22-.6.69-1.43,1.03-2.26,1.03Z"/><path d="M4.21,59.36L0,55.16s-.01-.03,0-.04l16.93-16.93s.01-.03,0-.04L0,21.22s-.01-.03,0-.04L21.18,0s.03-.01.04,0l4.2,4.2s.01.03,0,.04L8.49,21.18s-.01.03,0,.04l16.93,16.93s.01.03,0,.04L4.25,59.36s-.03.01-.04,0Z"/><path d="M62.38,58.14c-1.64-.07-2.87-1.55-2.87-3.19v-17.32c0-1.64,1.23-3.12,2.87-3.19,1.72-.08,3.13,1.3,3.13,3v17.71c0,1.7-1.42,3.07-3.13,3Z"/><circle class="cls-1" cx="35.27" cy="54.25" r="4"/><path d="M96.39,39.76h-3.76v3.11h3.3v.92h-3.3v3.81h-1.05v-8.76h4.81v.92Z"/><path d="M98.03,42.39v-1.03c.49-.3,1.14-.46,1.95-.46,1.66,0,2.48.84,2.48,2.52v4.17h-1.01v-.78c-.34.56-.95.84-1.85.84-.62,0-1.11-.18-1.49-.54-.38-.37-.57-.82-.57-1.38,0-.63.24-1.12.72-1.47.48-.35,1.14-.53,1.97-.53h1.2v-.34c0-.52-.12-.91-.35-1.18-.23-.26-.63-.4-1.18-.4-.7,0-1.33.19-1.87.56ZM101.44,44.56h-1.14c-.55,0-.97.11-1.25.33s-.42.49-.42.82.11.6.33.8c.22.2.53.31.95.31.47,0,.84-.13,1.12-.4.28-.26.42-.6.42-1.01v-.84Z"/><path d="M104.96,44.34c0,.71.22,1.3.65,1.78s1.03.71,1.81.71c.5,0,.97-.14,1.4-.43v.97c-.42.25-.93.38-1.53.38-1.04,0-1.87-.33-2.48-.99-.61-.66-.92-1.47-.92-2.42s.31-1.74.92-2.42c.61-.68,1.44-1.01,2.5-1.01.56,0,1.07.12,1.51.36v.97c-.4-.27-.87-.4-1.4-.4-.75,0-1.34.24-1.79.72-.45.48-.67,1.08-.67,1.79Z"/><path d="M114.5,41.01h1.03v6.59h-1.03v-1.14c-.35.82-1.04,1.22-2.07,1.22-.65,0-1.16-.19-1.54-.58-.38-.39-.57-.9-.57-1.55v-4.54h1.03v4.28c0,.48.12.84.36,1.09.24.25.57.38.99.38.55,0,.98-.19,1.31-.57.32-.38.49-.9.49-1.55v-3.63Z"/><path d="M117.48,47.6v-9.19h1.03v9.19h-1.03Z"/><path d="M121.87,41.84v3.86c0,.7.33,1.05.99,1.05.34,0,.64-.1.9-.3v.98c-.29.16-.61.23-.96.23-1.3,0-1.95-.66-1.95-1.99v-3.83h-1.05v-.83h1.05v-1.64h1.03v1.64h1.82v.83h-1.82Z"/><path d="M127.07,47.43l-2.67-6.42h1.16l.86,2.17,1.16,2.99c.07-.23.42-1.22,1.04-2.99l.77-2.17h1.1l-2.38,6.42c-.34.89-.74,1.52-1.2,1.88-.46.36-1,.55-1.59.55-.23,0-.41-.02-.55-.06v-.92c.13.04.28.05.44.05.88,0,1.49-.5,1.86-1.5Z"/><path d="M137.51,47.72c-.95,0-1.69-.32-2.24-.96-.55-.64-.83-1.44-.83-2.41s.28-1.8.85-2.45c.57-.65,1.31-.98,2.22-.98,1,0,1.77.32,2.31.96.54.64.81,1.46.81,2.45s-.28,1.79-.83,2.43c-.55.64-1.32.96-2.29.96ZM137.51,41.83c-.62,0-1.11.24-1.47.73-.36.49-.53,1.08-.53,1.78s.18,1.27.55,1.75.85.72,1.46.72c.66,0,1.17-.24,1.52-.71.36-.47.53-1.06.53-1.76s-.17-1.33-.51-1.8c-.34-.47-.85-.71-1.55-.71Z"/><path d="M145.29,38.41v.94c-.21-.07-.41-.1-.6-.1-.28,0-.5.1-.68.29s-.27.49-.27.88v.6h1.46v.83h-1.46v5.76h-1.03v-5.76h-1.13v-.83h1.13v-.61c0-.64.17-1.15.51-1.52.34-.37.82-.56,1.42-.56.21,0,.42.03.64.09Z"/><path d="M149.72,47.6v-8.76h1.05v8.76h-1.05Z"/><path d="M153.82,41.01v1.14c.39-.82,1.08-1.23,2.08-1.23.64,0,1.15.2,1.53.58.38.39.57.91.57,1.56v4.54h-1.03v-4.26c0-.49-.12-.86-.37-1.11s-.57-.38-.97-.38c-.49,0-.92.19-1.28.57-.36.38-.54.91-.54,1.59v3.6h-1.01v-6.59h1.01Z"/><path d="M162.97,38.41v.94c-.21-.07-.41-.1-.6-.1-.28,0-.5.1-.68.29s-.27.49-.27.88v.6h1.46v.83h-1.46v5.76h-1.03v-5.76h-1.13v-.83h1.13v-.61c0-.64.17-1.15.51-1.52.34-.37.82-.56,1.42-.56.21,0,.42.03.64.09Z"/><path d="M166.78,47.72c-.95,0-1.69-.32-2.24-.96-.55-.64-.83-1.44-.83-2.41s.28-1.8.85-2.45c.57-.65,1.31-.98,2.22-.98,1,0,1.77.32,2.31.96.54.64.81,1.46.81,2.45s-.28,1.79-.83,2.43c-.55.64-1.32.96-2.29.96ZM166.78,41.83c-.62,0-1.11.24-1.47.73-.36.49-.53,1.08-.53,1.78s.18,1.27.55,1.75.85.72,1.46.72c.66,0,1.17-.24,1.52-.71.36-.47.53-1.06.53-1.76s-.17-1.33-.51-1.8c-.34-.47-.85-.71-1.55-.71Z"/><path d="M172.42,41.01v1.16c.35-.81.95-1.22,1.79-1.22.16,0,.28,0,.36.03v1.01c-.18-.06-.37-.09-.56-.09-.46,0-.84.21-1.14.64-.3.42-.46.91-.46,1.47v3.6h-1.03v-6.59h1.03Z"/><path d="M176.66,41.01v1.07c.36-.77.98-1.16,1.86-1.16,1.01,0,1.66.43,1.92,1.29.19-.42.46-.73.8-.96.34-.22.73-.33,1.15-.33.68,0,1.2.2,1.55.58.35.39.52.92.52,1.57v4.52h-1.03v-4.26c0-1-.42-1.5-1.26-1.5-.42,0-.79.19-1.12.57s-.49.91-.49,1.59v3.6h-1.03v-4.26c0-1-.42-1.5-1.26-1.5-.42,0-.79.19-1.12.57-.33.38-.49.91-.49,1.59v3.6h-1.01v-6.59h1.01Z"/><path d="M186.42,42.39v-1.03c.49-.3,1.14-.46,1.95-.46,1.66,0,2.48.84,2.48,2.52v4.17h-1.01v-.78c-.34.56-.95.84-1.85.84-.62,0-1.11-.18-1.49-.54-.38-.37-.57-.82-.57-1.38,0-.63.24-1.12.72-1.47.48-.35,1.14-.53,1.97-.53h1.2v-.34c0-.52-.12-.91-.35-1.18-.23-.26-.63-.4-1.18-.4-.7,0-1.33.19-1.87.56ZM189.83,44.56h-1.14c-.55,0-.97.11-1.25.33s-.42.49-.42.82.11.6.33.8.53.31.95.31c.47,0,.84-.13,1.12-.4.28-.26.42-.6.42-1.01v-.84Z"/><path d="M194.09,41.84v3.86c0,.7.33,1.05.99,1.05.34,0,.64-.1.9-.3v.98c-.29.16-.61.23-.96.23-1.3,0-1.95-.66-1.95-1.99v-3.83h-1.05v-.83h1.05v-1.64h1.03v1.64h1.82v.83h-1.82Z"/><path d="M197.55,39.42c-.13-.12-.19-.28-.19-.47s.06-.35.19-.48c.12-.13.28-.2.47-.2s.35.06.48.2c.13.13.2.29.2.48s-.07.35-.2.47c-.13.13-.29.19-.48.19s-.35-.06-.47-.19ZM197.52,47.6v-6.59h1.03v6.59h-1.03Z"/><path d="M203.18,47.72c-.95,0-1.69-.32-2.24-.96-.55-.64-.83-1.44-.83-2.41s.28-1.8.85-2.45c.57-.65,1.31-.98,2.22-.98,1,0,1.77.32,2.31.96.54.64.81,1.46.81,2.45s-.28,1.79-.83,2.43c-.55.64-1.32.96-2.29.96ZM203.18,41.83c-.62,0-1.11.24-1.47.73-.36.49-.53,1.08-.53,1.78s.18,1.27.55,1.75.85.72,1.46.72c.66,0,1.17-.24,1.52-.71.36-.47.53-1.06.53-1.76s-.17-1.33-.51-1.8c-.34-.47-.85-.71-1.55-.71Z"/><path d="M208.82,41.01v1.14c.39-.82,1.08-1.23,2.08-1.23.64,0,1.15.2,1.53.58.38.39.57.91.57,1.56v4.54h-1.03v-4.26c0-.49-.12-.86-.37-1.11s-.57-.38-.97-.38c-.49,0-.92.19-1.28.57-.36.38-.54.91-.54,1.59v3.6h-1.01v-6.59h1.01Z"/><path d="M222.64,39.16v1.11c-.53-.35-1.16-.52-1.9-.52-.53,0-.95.12-1.26.37-.31.25-.47.57-.47.97,0,.21.04.39.12.56.08.17.23.32.44.46.21.14.39.25.53.32.15.07.38.18.69.32.29.13.52.23.68.31.16.07.36.19.6.35s.43.32.56.47c.13.15.24.35.34.6.1.25.15.51.15.8,0,.77-.26,1.37-.79,1.79-.53.42-1.21.63-2.04.63-.92,0-1.7-.19-2.34-.56v-1.13c.63.48,1.4.72,2.31.72.55,0,.97-.12,1.29-.36.31-.24.47-.59.47-1.05,0-.19-.04-.36-.11-.51-.07-.15-.2-.29-.36-.42s-.33-.23-.48-.31c-.15-.08-.36-.18-.62-.3-.05-.03-.13-.06-.23-.1-.37-.17-.66-.3-.85-.4-.2-.1-.42-.26-.69-.46s-.46-.44-.58-.71c-.12-.27-.18-.58-.18-.94,0-.75.27-1.33.8-1.75.53-.42,1.2-.63,2.01-.63.75,0,1.39.13,1.92.4Z"/><path d="M225.48,44.34c0,.71.23,1.3.65,1.78s1.03.71,1.81.71c.5,0,.97-.14,1.4-.43v.97c-.42.25-.93.38-1.53.38-1.04,0-1.87-.33-2.48-.99s-.92-1.47-.92-2.42.3-1.74.92-2.42c.61-.68,1.45-1.01,2.5-1.01.56,0,1.07.12,1.51.36v.97c-.4-.27-.87-.4-1.4-.4-.75,0-1.34.24-1.79.72-.45.48-.67,1.08-.67,1.79Z"/><path d="M231.02,39.42c-.13-.12-.19-.28-.19-.47s.06-.35.19-.48c.12-.13.28-.2.47-.2s.35.06.48.2c.13.13.2.29.2.48s-.07.35-.2.47c-.13.13-.29.19-.48.19s-.35-.06-.47-.19ZM230.98,47.6v-6.59h1.03v6.59h-1.03Z"/><path d="M238.77,46.3v.96c-.51.27-1.14.4-1.87.4-1,0-1.8-.3-2.41-.92-.61-.61-.92-1.42-.92-2.42s.27-1.88.82-2.48,1.25-.91,2.11-.91,1.48.26,1.96.79.73,1.28.73,2.25c0,.28-.02.53-.07.77h-4.5c.08.65.33,1.15.74,1.49.42.35.96.52,1.64.52.74,0,1.33-.15,1.77-.45ZM238.16,43.88v-.26c0-.54-.15-.98-.44-1.31-.29-.32-.7-.49-1.22-.49-.49,0-.91.18-1.26.53s-.55.86-.61,1.52h3.54Z"/><path d="M241.76,41.01v1.14c.39-.82,1.08-1.23,2.08-1.23.64,0,1.15.2,1.53.58.38.39.57.91.57,1.56v4.54h-1.03v-4.26c0-.49-.12-.86-.37-1.11s-.57-.38-.97-.38c-.49,0-.92.19-1.28.57-.36.38-.54.91-.54,1.59v3.6h-1.01v-6.59h1.01Z"/><path d="M248.44,44.34c0,.71.22,1.3.65,1.78s1.03.71,1.81.71c.5,0,.97-.14,1.4-.43v.97c-.42.25-.93.38-1.53.38-1.04,0-1.87-.33-2.48-.99-.61-.66-.92-1.47-.92-2.42s.31-1.74.92-2.42c.61-.68,1.44-1.01,2.5-1.01.56,0,1.07.12,1.51.36v.97c-.4-.27-.87-.4-1.4-.4-.75,0-1.34.24-1.79.72-.45.48-.67,1.08-.67,1.79Z"/><path d="M258.7,46.3v.96c-.51.27-1.14.4-1.87.4-1,0-1.8-.3-2.41-.92-.61-.61-.92-1.42-.92-2.42s.27-1.88.82-2.48,1.25-.91,2.11-.91,1.48.26,1.96.79.73,1.28.73,2.25c0,.28-.02.53-.07.77h-4.5c.08.65.33,1.15.74,1.49.42.35.96.52,1.64.52.74,0,1.33-.15,1.77-.45ZM258.09,43.88v-.26c0-.54-.15-.98-.44-1.31-.29-.32-.7-.49-1.22-.49-.49,0-.91.18-1.26.53s-.55.86-.61,1.52h3.54Z"/><path d="M263.99,42.39v-1.03c.49-.3,1.14-.46,1.95-.46,1.66,0,2.48.84,2.48,2.52v4.17h-1.01v-.78c-.34.56-.95.84-1.85.84-.62,0-1.11-.18-1.49-.54-.38-.37-.57-.82-.57-1.38,0-.63.24-1.12.72-1.47.48-.35,1.14-.53,1.97-.53h1.2v-.34c0-.52-.12-.91-.35-1.18-.23-.26-.63-.4-1.18-.4-.7,0-1.33.19-1.87.56ZM267.39,44.56h-1.14c-.55,0-.97.11-1.25.33s-.42.49-.42.82.11.6.33.8c.22.2.53.31.95.31.47,0,.84-.13,1.12-.4.28-.26.42-.6.42-1.01v-.84Z"/><path d="M271.26,41.01v1.14c.39-.82,1.08-1.23,2.08-1.23.64,0,1.15.2,1.53.58.38.39.57.91.57,1.56v4.54h-1.03v-4.26c0-.49-.12-.86-.37-1.11s-.57-.38-.97-.38c-.49,0-.92.19-1.28.57-.36.38-.54.91-.54,1.59v3.6h-1.01v-6.59h1.01Z"/><path d="M281.71,38.41h1.03v9.19h-1.03v-.97c-.47.72-1.14,1.08-2.03,1.08s-1.56-.32-2.06-.97-.75-1.44-.75-2.37c0-1.03.26-1.87.79-2.5.53-.64,1.21-.96,2.04-.96s1.53.37,2,1.11v-3.6ZM279.77,46.77c.54,0,1-.2,1.37-.6s.57-1.04.57-1.91-.2-1.44-.58-1.83-.82-.58-1.29-.58c-.55,0-1,.22-1.36.66-.36.44-.54,1.06-.54,1.88,0,.71.17,1.29.52,1.73s.78.66,1.31.66Z"/><path d="M292.87,38.84v.92h-2.37v7.84h-1.05v-7.84h-2.37v-.92h5.79Z"/><path d="M298.88,46.3v.96c-.51.27-1.13.4-1.87.4-1,0-1.8-.3-2.41-.92s-.92-1.42-.92-2.42.27-1.88.82-2.48,1.25-.91,2.11-.91,1.48.26,1.96.79.73,1.28.73,2.25c0,.28-.02.53-.06.77h-4.5c.08.65.33,1.15.74,1.49.42.35.96.52,1.64.52.74,0,1.33-.15,1.77-.45ZM298.27,43.88v-.26c0-.54-.15-.98-.44-1.31-.29-.32-.7-.49-1.22-.49s-.92.18-1.26.53c-.35.36-.55.86-.61,1.52h3.54Z"/><path d="M301.53,44.34c0,.71.22,1.3.65,1.78s1.03.71,1.81.71c.5,0,.97-.14,1.4-.43v.97c-.42.25-.93.38-1.53.38-1.04,0-1.87-.33-2.48-.99-.61-.66-.92-1.47-.92-2.42s.31-1.74.92-2.42c.61-.68,1.44-1.01,2.5-1.01.56,0,1.07.12,1.51.36v.97c-.4-.27-.87-.4-1.4-.4-.75,0-1.34.24-1.79.72-.45.48-.67,1.08-.67,1.79Z"/><path d="M307.99,38.41v3.74c.39-.82,1.08-1.23,2.08-1.23.63,0,1.14.2,1.53.58.39.39.58.92.58,1.59v4.51h-1.03v-4.26c0-.48-.12-.85-.37-1.11s-.57-.39-.97-.39c-.49,0-.91.19-1.27.56-.36.37-.55.91-.55,1.6v3.6h-1.01v-9.19h1.01Z"/><path d="M315.01,41.01v1.14c.39-.82,1.08-1.23,2.08-1.23.64,0,1.15.2,1.53.58.38.39.57.91.57,1.56v4.54h-1.03v-4.26c0-.49-.12-.86-.37-1.11s-.57-.38-.97-.38c-.49,0-.92.19-1.28.57-.36.38-.54.91-.54,1.59v3.6h-1.01v-6.59h1.01Z"/><path d="M323.7,47.72c-.95,0-1.69-.32-2.24-.96-.55-.64-.83-1.44-.83-2.41s.28-1.8.85-2.45c.57-.65,1.31-.98,2.22-.98,1,0,1.77.32,2.31.96.54.64.81,1.46.81,2.45s-.28,1.79-.83,2.43c-.55.64-1.32.96-2.29.96ZM323.7,41.83c-.62,0-1.11.24-1.47.73-.36.49-.53,1.08-.53,1.78s.18,1.27.55,1.75.85.72,1.46.72c.66,0,1.17-.24,1.52-.71.36-.47.53-1.06.53-1.76s-.17-1.33-.51-1.8c-.34-.47-.85-.71-1.55-.71Z"/><path d="M328.38,47.6v-9.19h1.03v9.19h-1.03Z"/><path d="M334.03,47.72c-.95,0-1.69-.32-2.24-.96-.55-.64-.83-1.44-.83-2.41s.28-1.8.85-2.45c.57-.65,1.31-.98,2.22-.98,1,0,1.77.32,2.31.96.54.64.81,1.46.81,2.45s-.28,1.79-.83,2.43c-.55.64-1.32.96-2.29.96ZM334.03,41.83c-.62,0-1.11.24-1.47.73-.36.49-.53,1.08-.53,1.78s.18,1.27.55,1.75.85.72,1.46.72c.66,0,1.17-.24,1.52-.71.36-.47.53-1.06.53-1.76s-.17-1.33-.51-1.8c-.34-.47-.85-.71-1.55-.71Z"/><path d="M342.95,41.01h1.03v6.06c0,1.01-.28,1.76-.83,2.27s-1.27.76-2.15.76c-.8,0-1.48-.13-2.04-.4v-1.03c.55.32,1.21.48,1.95.48.63,0,1.13-.17,1.5-.51s.55-.87.55-1.59v-.74c-.43.75-1.08,1.12-1.94,1.12-.75,0-1.4-.28-1.93-.83-.53-.55-.8-1.33-.8-2.31s.25-1.79.74-2.42,1.14-.95,1.94-.95c.9,0,1.56.39,1.99,1.18v-1.09ZM341.13,46.52c.48,0,.9-.18,1.27-.55.37-.37.55-.92.55-1.64,0-.84-.18-1.46-.53-1.87-.36-.41-.77-.61-1.23-.61-.56,0-1.01.22-1.34.67-.33.45-.49,1.03-.49,1.75s.18,1.3.55,1.68c.36.39.78.58,1.23.58Z"/><path d="M347.62,47.43l-2.67-6.42h1.16l.86,2.17,1.16,2.99c.07-.23.42-1.22,1.04-2.99l.77-2.17h1.11l-2.38,6.42c-.34.89-.74,1.52-1.2,1.88s-.99.55-1.59.55c-.23,0-.41-.02-.55-.06v-.92c.13.04.28.05.44.05.88,0,1.5-.5,1.86-1.5Z"/><path d="M351.15,49.2l1.21-2.91h1.37l-1.68,2.91h-.9Z"/><path d="M363.66,38.84h1.05v8.76h-1.05v-3.96h-4.25v3.96h-1.05v-8.76h1.05v3.85h4.25v-3.85Z"/><path d="M369.34,47.72c-.95,0-1.69-.32-2.24-.96-.55-.64-.83-1.44-.83-2.41s.28-1.8.85-2.45c.57-.65,1.31-.98,2.22-.98,1,0,1.77.32,2.31.96.54.64.81,1.46.81,2.45s-.28,1.79-.83,2.43c-.55.64-1.32.96-2.29.96ZM369.34,41.83c-.62,0-1.11.24-1.47.73-.36.49-.53,1.08-.53,1.78s.18,1.27.55,1.75.85.72,1.46.72c.66,0,1.17-.24,1.52-.71.36-.47.53-1.06.53-1.76s-.17-1.33-.51-1.8c-.34-.47-.85-.71-1.55-.71Z"/><path d="M373.97,47.6v-9.14h1.01v9.14h-1.01ZM376.32,44.14l2.68,3.46h-1.24l-2.65-3.46,2.59-3.13h1.22l-2.6,3.13Z"/><path d="M380.21,47.6v-9.14h1.01v9.14h-1.01ZM382.56,44.14l2.68,3.46h-1.23l-2.65-3.46,2.59-3.13h1.22l-2.6,3.13Z"/><path d="M386.59,42.39v-1.03c.49-.3,1.14-.46,1.95-.46,1.66,0,2.48.84,2.48,2.52v4.17h-1.01v-.78c-.34.56-.95.84-1.85.84-.62,0-1.11-.18-1.49-.54-.38-.37-.57-.82-.57-1.38,0-.63.24-1.12.72-1.47.48-.35,1.14-.53,1.97-.53h1.2v-.34c0-.52-.12-.91-.35-1.18-.23-.26-.63-.4-1.18-.4-.7,0-1.33.19-1.87.56ZM390,44.56h-1.14c-.55,0-.97.11-1.25.33s-.42.49-.42.82.11.6.33.8c.22.2.53.31.95.31.47,0,.84-.13,1.12-.4.28-.26.42-.6.42-1.01v-.84Z"/><path d="M392.93,39.42c-.13-.12-.19-.28-.19-.47s.06-.35.19-.48c.13-.13.28-.2.47-.2s.35.06.48.2c.13.13.2.29.2.48s-.06.35-.2.47c-.13.13-.29.19-.48.19s-.35-.06-.47-.19ZM392.9,47.6v-6.59h1.03v6.59h-1.03Z"/><path d="M400.32,38.41h1.03v9.19h-1.03v-.97c-.47.72-1.14,1.08-2.03,1.08s-1.56-.32-2.06-.97-.75-1.44-.75-2.37c0-1.03.26-1.87.79-2.5.53-.64,1.21-.96,2.04-.96s1.53.37,2,1.11v-3.6ZM398.38,46.77c.54,0,1-.2,1.37-.6s.57-1.04.57-1.91-.2-1.44-.58-1.83-.82-.58-1.29-.58c-.55,0-1,.22-1.36.66-.36.44-.54,1.06-.54,1.88,0,.71.17,1.29.52,1.73s.78.66,1.31.66Z"/><path d="M405.92,47.72c-.95,0-1.69-.32-2.24-.96-.55-.64-.83-1.44-.83-2.41s.28-1.8.85-2.45c.57-.65,1.31-.98,2.22-.98,1,0,1.77.32,2.31.96.54.64.81,1.46.81,2.45s-.28,1.79-.83,2.43c-.55.64-1.32.96-2.29.96ZM405.92,41.83c-.62,0-1.11.24-1.47.73-.36.49-.53,1.08-.53,1.78s.18,1.27.55,1.75.85.72,1.46.72c.66,0,1.17-.24,1.52-.71.36-.47.53-1.06.53-1.76s-.17-1.33-.51-1.8c-.34-.47-.85-.71-1.55-.71Z"/><path d="M419.12,44.3v-5.46h1.05v5.43c0,1.13-.28,1.98-.85,2.56-.57.58-1.36.87-2.37.87s-1.78-.28-2.34-.85c-.56-.57-.84-1.39-.84-2.48v-5.54h1.05v5.53c0,.8.19,1.4.58,1.78.38.38.9.57,1.55.57,1.45,0,2.17-.81,2.17-2.42Z"/><path d="M423.12,41.01v1.14c.39-.82,1.08-1.23,2.08-1.23.64,0,1.15.2,1.53.58.38.39.57.91.57,1.56v4.54h-1.03v-4.26c0-.49-.12-.86-.37-1.11s-.57-.38-.97-.38c-.49,0-.92.19-1.28.57-.36.38-.54.91-.54,1.59v3.6h-1.01v-6.59h1.01Z"/><path d="M429.21,39.42c-.13-.12-.19-.28-.19-.47s.06-.35.19-.48c.13-.13.28-.2.47-.2s.35.06.48.2c.13.13.2.29.2.48s-.06.35-.2.47c-.13.13-.29.19-.48.19s-.35-.06-.47-.19ZM429.18,47.6v-6.59h1.03v6.59h-1.03Z"/><path d="M433.83,47.6l-2.3-6.59h1.07l.91,2.78.96,3c.08-.37.4-1.37.97-3l.94-2.78h1.07l-2.35,6.59h-1.26Z"/><path d="M443.53,46.3v.96c-.51.27-1.14.4-1.87.4-1,0-1.8-.3-2.41-.92-.61-.61-.92-1.42-.92-2.42s.27-1.88.82-2.48,1.25-.91,2.11-.91,1.48.26,1.96.79.73,1.28.73,2.25c0,.28-.02.53-.07.77h-4.5c.08.65.33,1.15.74,1.49.42.35.96.52,1.64.52.74,0,1.33-.15,1.77-.45ZM442.92,43.88v-.26c0-.54-.15-.98-.44-1.31-.29-.32-.7-.49-1.22-.49-.49,0-.91.18-1.26.53s-.55.86-.61,1.52h3.54Z"/><path d="M446.52,41.01v1.16c.35-.81.95-1.22,1.79-1.22.16,0,.28,0,.36.03v1.01c-.18-.06-.37-.09-.56-.09-.46,0-.84.21-1.14.64-.3.42-.46.91-.46,1.47v3.6h-1.03v-6.59h1.03Z"/><path d="M453.33,41.23v.98c-.4-.24-.95-.36-1.64-.36-.35,0-.62.08-.83.24-.2.16-.31.37-.31.62,0,.16.03.29.09.41.06.12.18.23.36.35.18.11.31.19.39.23.08.04.26.12.54.24.55.23.99.48,1.3.77.31.29.47.67.47,1.16,0,.56-.2,1.01-.59,1.34-.39.33-.93.49-1.62.49-.8,0-1.44-.13-1.94-.4v-1c.58.35,1.21.52,1.87.52.4,0,.7-.08.91-.23.21-.16.31-.37.31-.64,0-.31-.11-.55-.34-.73-.23-.17-.61-.37-1.15-.59-.49-.19-.89-.43-1.19-.71-.3-.29-.45-.67-.45-1.16,0-.55.21-.98.62-1.31.41-.33.92-.49,1.54-.49.68,0,1.24.1,1.65.29Z"/><path d="M455.18,39.42c-.13-.12-.19-.28-.19-.47s.06-.35.19-.48c.12-.13.28-.2.47-.2s.35.06.48.2c.13.13.2.29.2.48s-.07.35-.2.47c-.13.13-.29.19-.48.19s-.35-.06-.47-.19ZM455.15,47.6v-6.59h1.03v6.59h-1.03Z"/><path d="M459.54,41.84v3.86c0,.7.33,1.05.99,1.05.34,0,.64-.1.9-.3v.98c-.29.16-.61.23-.96.23-1.3,0-1.95-.66-1.95-1.99v-3.83h-1.05v-.83h1.05v-1.64h1.03v1.64h1.82v.83h-1.82Z"/><path d="M464.74,47.43l-2.67-6.42h1.16l.86,2.17,1.16,2.99c.07-.23.42-1.22,1.04-2.99l.77-2.17h1.1l-2.38,6.42c-.34.89-.74,1.52-1.2,1.88-.46.36-1,.55-1.59.55-.23,0-.41-.02-.55-.06v-.92c.13.04.28.05.44.05.88,0,1.49-.5,1.86-1.5Z"/><path d="M50.43,6.87v2.38c-1.14-.75-2.5-1.12-4.09-1.12-1.14,0-2.04.27-2.72.8s-1.01,1.23-1.01,2.09c0,.45.09.85.27,1.2s.49.69.94.99c.45.31.83.54,1.15.7.32.16.81.39,1.48.69.63.28,1.12.5,1.46.66.34.16.77.41,1.3.76.53.35.93.68,1.2,1.01.27.33.51.76.73,1.29s.32,1.11.32,1.72c0,1.66-.57,2.95-1.71,3.85s-2.6,1.36-4.4,1.36c-1.98,0-3.66-.4-5.04-1.2v-2.44c1.36,1.03,3.02,1.54,4.98,1.54,1.18,0,2.1-.26,2.77-.78.67-.52,1.01-1.28,1.01-2.27,0-.41-.08-.78-.24-1.11-.16-.33-.42-.62-.78-.9-.36-.27-.71-.49-1.04-.67-.33-.18-.77-.4-1.33-.66-.11-.06-.28-.13-.5-.22-.8-.35-1.41-.64-1.83-.87-.42-.22-.92-.56-1.48-.99s-.99-.95-1.25-1.53c-.26-.58-.39-1.25-.39-2.02,0-1.61.57-2.86,1.72-3.77,1.15-.91,2.59-1.36,4.33-1.36,1.62,0,3,.29,4.14.87Z"/><path d="M58.16,12.64v8.32c0,1.51.71,2.27,2.13,2.27.73,0,1.37-.21,1.93-.64v2.1c-.62.34-1.31.5-2.07.5-2.8,0-4.2-1.43-4.2-4.28v-8.26h-2.27v-1.79h2.27v-3.53h2.21v3.53h3.92v1.79h-3.92Z"/><path d="M67.62,10.85v2.49c.75-1.75,2.03-2.63,3.86-2.63.34,0,.6.02.78.06v2.18c-.39-.13-.79-.2-1.2-.2-.99,0-1.81.46-2.46,1.37-.65.91-.98,1.97-.98,3.16v7.76h-2.21l.03-14.2h2.18Z"/><path d="M83.38,10.85h2.21v14.2h-2.21v-2.46c-.75,1.75-2.23,2.63-4.45,2.63-1.4,0-2.51-.42-3.32-1.25-.81-.83-1.22-1.95-1.22-3.35v-9.77h2.21v9.21c0,1.03.26,1.81.78,2.35.52.54,1.23.81,2.13.81,1.18,0,2.11-.41,2.81-1.23s1.05-1.93,1.05-3.33v-7.81Z"/><path d="M91.14,18.01c.02,1.53.49,2.8,1.4,3.82.92,1.02,2.21,1.53,3.89,1.53,1.08,0,2.09-.31,3.02-.92v2.1c-.9.54-2,.81-3.3.81-2.24,0-4.02-.71-5.33-2.14-1.32-1.43-1.97-3.17-1.97-5.22s.66-3.75,1.97-5.21,3.11-2.18,5.39-2.18c1.21,0,2.3.26,3.25.78v2.1c-.86-.58-1.87-.87-3.02-.87-1.61,0-2.89.52-3.85,1.55-.96,1.04-1.44,2.32-1.44,3.85Z"/><path d="M105.92,12.64v8.32c0,1.51.71,2.27,2.13,2.27.73,0,1.37-.21,1.93-.64v2.1c-.62.34-1.31.5-2.07.5-2.8,0-4.2-1.43-4.2-4.28v-8.26h-2.27v-1.79h2.27v-3.53h2.21v3.53h3.92v1.79h-3.92Z"/><path d="M122.02,10.85h2.21v14.2h-2.21v-2.46c-.75,1.75-2.23,2.63-4.45,2.63-1.4,0-2.51-.42-3.32-1.25-.81-.83-1.22-1.95-1.22-3.35v-9.77h2.21v9.21c0,1.03.26,1.81.78,2.35.52.54,1.23.81,2.13.81,1.18,0,2.11-.41,2.81-1.23s1.05-1.93,1.05-3.33v-7.81Z"/><path d="M130.5,10.85v2.49c.75-1.75,2.03-2.63,3.86-2.63.34,0,.6.02.78.06v2.18c-.39-.13-.79-.2-1.2-.2-.99,0-1.81.46-2.46,1.37-.65.91-.98,1.97-.98,3.16v7.76h-2.21l.03-14.2h2.18Z"/><path d="M147.81,22.24v2.07c-1.1.58-2.45.87-4.03.87-2.15,0-3.88-.66-5.19-1.97s-1.97-3.06-1.97-5.22.59-4.04,1.76-5.35c1.18-1.31,2.69-1.96,4.54-1.96s3.18.57,4.23,1.71c1.04,1.14,1.57,2.75,1.57,4.84,0,.6-.05,1.15-.14,1.65h-9.69c.17,1.4.7,2.47,1.6,3.22.9.75,2.07,1.12,3.53,1.12,1.59,0,2.86-.33,3.81-.98ZM146.49,17.04v-.56c0-1.18-.32-2.11-.95-2.81-.64-.7-1.51-1.05-2.63-1.05s-1.97.38-2.72,1.15c-.75.77-1.19,1.86-1.32,3.28h7.62Z"/><path d="M161.64,5.25h2.21v19.8h-2.21v-2.1c-1.01,1.55-2.46,2.32-4.37,2.32s-3.37-.7-4.44-2.1c-1.07-1.4-1.61-3.1-1.61-5.1,0-2.22.57-4.02,1.71-5.39,1.14-1.37,2.6-2.06,4.4-2.06s3.29.79,4.31,2.38v-7.76ZM157.47,23.25c1.16,0,2.14-.43,2.95-1.29.81-.86,1.22-2.23,1.22-4.12s-.42-3.11-1.26-3.95c-.84-.84-1.76-1.26-2.77-1.26-1.18,0-2.15.47-2.93,1.41-.78.94-1.16,2.29-1.16,4.05,0,1.53.37,2.77,1.12,3.72.75.95,1.69,1.43,2.83,1.43Z"/><path d="M187.45,25.04l-1.65-4.96h-7.98l-1.68,4.96h-2.44l6.58-18.87h3.14l6.47,18.87h-2.44ZM178.47,18.15h6.69l-.36-1.09-2.94-9.07c-.22.8-1.23,3.84-3.02,9.1l-.36,1.06Z"/><path d="M195.1,10.85v2.49c.75-1.75,2.03-2.63,3.86-2.63.34,0,.6.02.78.06v2.18c-.39-.13-.79-.2-1.2-.2-.99,0-1.81.46-2.46,1.37-.65.91-.98,1.97-.98,3.16v7.76h-2.21l.03-14.2h2.18Z"/><path d="M205.1,12.64v8.32c0,1.51.71,2.27,2.13,2.27.73,0,1.37-.21,1.93-.64v2.1c-.62.34-1.31.5-2.07.5-2.8,0-4.2-1.43-4.2-4.28v-8.26h-2.27v-1.79h2.27v-3.53h2.21v3.53h3.92v1.79h-3.92Z"/><path d="M212.56,7.42c-.27-.27-.41-.61-.41-1.02s.14-.76.41-1.04c.27-.28.61-.42,1.02-.42s.76.14,1.04.42c.28.28.42.63.42,1.04s-.14.75-.42,1.02c-.28.27-.63.41-1.04.41s-.75-.13-1.02-.41ZM212.49,25.04v-14.2h2.21v14.2h-2.21Z"/><path d="M229.31,10.85v14.2h-2.21v-12.4h-4.76v12.4h-2.21v-12.4h-2.44v-1.79h2.44v-1.32c0-1.38.37-2.47,1.12-3.28.75-.8,1.8-1.2,3.16-1.2s2.62.32,3.89.95v2.04c-1.31-.67-2.58-1.01-3.81-1.01-1.44,0-2.16.84-2.16,2.52v1.29h6.97Z"/><path d="M234.75,18.01c.02,1.53.49,2.8,1.4,3.82.92,1.02,2.21,1.53,3.89,1.53,1.08,0,2.09-.31,3.02-.92v2.1c-.9.54-2,.81-3.3.81-2.24,0-4.02-.71-5.33-2.14-1.32-1.43-1.97-3.17-1.97-5.22s.66-3.75,1.97-5.21,3.11-2.18,5.39-2.18c1.21,0,2.3.26,3.25.78v2.1c-.86-.58-1.87-.87-3.02-.87-1.61,0-2.89.52-3.85,1.55-.96,1.04-1.44,2.32-1.44,3.85Z"/><path d="M246.66,7.42c-.27-.27-.41-.61-.41-1.02s.13-.76.41-1.04c.27-.28.61-.42,1.02-.42s.76.14,1.04.42c.28.28.42.63.42,1.04s-.14.75-.42,1.02-.63.41-1.04.41-.75-.13-1.02-.41ZM246.59,25.04v-14.2h2.21v14.2h-2.21Z"/><path d="M253.31,13.81v-2.21c1.06-.65,2.46-.98,4.2-.98,3.57,0,5.35,1.81,5.35,5.43v8.99h-2.18v-1.68c-.73,1.21-2.05,1.82-3.98,1.82-1.33,0-2.39-.39-3.21-1.18-.81-.78-1.22-1.77-1.22-2.97,0-1.36.52-2.42,1.55-3.18,1.04-.76,2.45-1.13,4.24-1.13h2.58v-.73c0-1.12-.25-1.96-.76-2.53s-1.35-.85-2.55-.85c-1.51,0-2.86.4-4.03,1.2ZM260.65,18.49h-2.46c-1.2,0-2.09.23-2.69.7-.6.47-.9,1.05-.9,1.76s.23,1.28.7,1.72,1.15.66,2.04.66c1.01,0,1.81-.28,2.41-.85.6-.57.9-1.29.9-2.17v-1.82Z"/><path d="M266.89,25.04V5.25h2.21v19.8h-2.21Z"/><path d="M280.41,25.04V6.17h2.27v18.87h-2.27Z"/><path d="M289.23,10.85v2.46c.84-1.77,2.33-2.66,4.48-2.66,1.38,0,2.48.42,3.3,1.26.82.84,1.23,1.96,1.23,3.36v9.77h-2.21v-9.18c0-1.04-.27-1.84-.8-2.39s-1.23-.83-2.09-.83c-1.06,0-1.98.41-2.76,1.23-.78.82-1.16,1.96-1.16,3.42v7.76h-2.18v-14.2h2.18Z"/><path d="M305.22,12.64v8.32c0,1.51.71,2.27,2.13,2.27.73,0,1.37-.21,1.93-.64v2.1c-.62.34-1.31.5-2.07.5-2.8,0-4.2-1.43-4.2-4.28v-8.26h-2.27v-1.79h2.27v-3.53h2.21v3.53h3.92v1.79h-3.92Z"/><path d="M322.86,22.24v2.07c-1.1.58-2.45.87-4.03.87-2.15,0-3.88-.66-5.19-1.97s-1.97-3.06-1.97-5.22.59-4.04,1.76-5.35c1.18-1.31,2.69-1.96,4.54-1.96s3.18.57,4.23,1.71c1.04,1.14,1.57,2.75,1.57,4.84,0,.6-.05,1.15-.14,1.65h-9.69c.17,1.4.7,2.47,1.6,3.22.9.75,2.07,1.12,3.53,1.12,1.59,0,2.86-.33,3.81-.98ZM321.54,17.04v-.56c0-1.18-.32-2.11-.95-2.81-.64-.7-1.51-1.05-2.63-1.05s-1.97.38-2.72,1.15c-.75.77-1.19,1.86-1.32,3.28h7.62Z"/><path d="M327.23,25.04V5.25h2.21v19.8h-2.21Z"/><path d="M333.75,25.04V5.25h2.21v19.8h-2.21Z"/><path d="M340.34,7.42c-.27-.27-.41-.61-.41-1.02s.14-.76.41-1.04c.27-.28.61-.42,1.02-.42s.76.14,1.04.42c.28.28.42.63.42,1.04s-.14.75-.42,1.02c-.28.27-.63.41-1.04.41s-.75-.13-1.02-.41ZM340.27,25.04v-14.2h2.21v14.2h-2.21Z"/><path d="M355.93,10.85h2.21v13.05c0,2.17-.6,3.79-1.79,4.89-1.2,1.09-2.74,1.64-4.62,1.64-1.72,0-3.18-.29-4.4-.87v-2.21c1.19.69,2.59,1.04,4.2,1.04,1.36,0,2.44-.36,3.22-1.09.78-.73,1.18-1.87,1.18-3.42v-1.6c-.93,1.61-2.32,2.41-4.17,2.41-1.62,0-3.01-.6-4.16-1.79-1.15-1.19-1.72-2.86-1.72-4.98s.53-3.84,1.6-5.21c1.06-1.36,2.45-2.04,4.17-2.04,1.94,0,3.37.85,4.28,2.55v-2.35ZM352,22.72c1.03,0,1.94-.4,2.73-1.19s1.19-1.97,1.19-3.54c0-1.81-.38-3.15-1.15-4.03-.77-.88-1.65-1.32-2.66-1.32-1.21,0-2.17.48-2.88,1.44-.71.96-1.06,2.22-1.06,3.77s.39,2.8,1.18,3.63c.78.83,1.67,1.25,2.66,1.25Z"/><path d="M372.42,22.24v2.07c-1.1.58-2.45.87-4.03.87-2.15,0-3.88-.66-5.19-1.97-1.32-1.32-1.97-3.06-1.97-5.22s.59-4.04,1.76-5.35,2.69-1.96,4.54-1.96,3.18.57,4.23,1.71c1.05,1.14,1.57,2.75,1.57,4.84,0,.6-.05,1.15-.14,1.65h-9.69c.17,1.4.7,2.47,1.6,3.22.9.75,2.07,1.12,3.53,1.12,1.59,0,2.86-.33,3.81-.98ZM371.1,17.04v-.56c0-1.18-.32-2.11-.95-2.81-.63-.7-1.51-1.05-2.63-1.05s-1.97.38-2.72,1.15c-.75.77-1.19,1.86-1.32,3.28h7.62Z"/><path d="M378.86,10.85v2.46c.84-1.77,2.33-2.66,4.48-2.66,1.38,0,2.48.42,3.3,1.26.82.84,1.23,1.96,1.23,3.36v9.77h-2.21v-9.18c0-1.04-.27-1.84-.8-2.39s-1.23-.83-2.09-.83c-1.06,0-1.98.41-2.76,1.23-.78.82-1.16,1.96-1.16,3.42v7.76h-2.18v-14.2h2.18Z"/><path d="M393.25,18.01c.02,1.53.49,2.8,1.4,3.82.92,1.02,2.21,1.53,3.89,1.53,1.08,0,2.09-.31,3.02-.92v2.1c-.9.54-2,.81-3.3.81-2.24,0-4.02-.71-5.33-2.14-1.32-1.43-1.97-3.17-1.97-5.22s.66-3.75,1.97-5.21,3.11-2.18,5.39-2.18c1.21,0,2.3.26,3.25.78v2.1c-.86-.58-1.87-.87-3.02-.87-1.61,0-2.89.52-3.85,1.55-.96,1.04-1.44,2.32-1.44,3.85Z"/><path d="M415.34,22.24v2.07c-1.1.58-2.45.87-4.03.87-2.15,0-3.88-.66-5.19-1.97s-1.97-3.06-1.97-5.22.59-4.04,1.76-5.35c1.18-1.31,2.69-1.96,4.54-1.96s3.18.57,4.23,1.71c1.04,1.14,1.57,2.75,1.57,4.84,0,.6-.05,1.15-.14,1.65h-9.69c.17,1.4.7,2.47,1.6,3.22.9.75,2.07,1.12,3.53,1.12,1.59,0,2.86-.33,3.81-.98ZM414.02,17.04v-.56c0-1.18-.32-2.11-.95-2.81-.64-.7-1.51-1.05-2.63-1.05s-1.97.38-2.72,1.15c-.75.77-1.19,1.86-1.32,3.28h7.62Z"/><path d="M428.81,23h8.04v2.04h-10.3V6.17h2.27v16.83Z"/><path d="M440.09,13.81v-2.21c1.06-.65,2.46-.98,4.2-.98,3.57,0,5.35,1.81,5.35,5.43v8.99h-2.18v-1.68c-.73,1.21-2.05,1.82-3.98,1.82-1.33,0-2.39-.39-3.21-1.18-.81-.78-1.22-1.77-1.22-2.97,0-1.36.52-2.42,1.55-3.18,1.04-.76,2.45-1.13,4.24-1.13h2.58v-.73c0-1.12-.25-1.96-.76-2.53s-1.35-.85-2.55-.85c-1.51,0-2.86.4-4.03,1.2ZM447.43,18.49h-2.46c-1.2,0-2.09.23-2.69.7-.6.47-.9,1.05-.9,1.76s.23,1.28.7,1.72,1.15.66,2.04.66c1.01,0,1.81-.28,2.41-.85.6-.57.9-1.29.9-2.17v-1.82Z"/><path d="M455.86,5.25v7.73c1.03-1.57,2.46-2.35,4.31-2.35s3.26.69,4.4,2.06,1.71,3.17,1.71,5.39c0,2-.54,3.7-1.61,5.1-1.07,1.4-2.55,2.1-4.44,2.1s-3.36-.77-4.37-2.32v2.1h-2.21V5.25h2.21ZM460.03,23.25c1.14,0,2.08-.48,2.83-1.43.75-.95,1.12-2.19,1.12-3.72,0-1.75-.39-3.1-1.16-4.05-.78-.94-1.75-1.41-2.93-1.41-1.01,0-1.93.42-2.77,1.26s-1.26,2.16-1.26,3.95c0,1.89.41,3.26,1.22,4.12.81.86,1.8,1.29,2.95,1.29Z"/><path d="M468.62,24.79c-.32-.32-.48-.71-.48-1.18s.16-.86.48-1.18c.32-.32.71-.48,1.18-.48s.86.16,1.18.48c.32.32.48.71.48,1.18s-.16.86-.48,1.18-.71.48-1.18.48-.86-.16-1.18-.48Z"/></svg>