<?xml version="1.0" encoding="UTF-8"?><svg id="logo" xmlns="http://www.w3.org/2000/svg" viewBox="0 0 340.65 59.4"><defs><style>.cls-1{fill:#ccc;}</style></defs><path d="M41.65,4c0-.44.3-.64.8-.64s.8.2.8.64v17c0,.44-.32.64-.8.64s-.8-.2-.8-.64v-4.14c-1.62.96-3.16,1.72-4.48,2.24-.16.06-.28.08-.4.08-.34,0-.58-.2-.7-.52-.06-.12-.08-.26-.08-.36,0-.34.18-.62.54-.74,1.46-.54,3.3-1.38,5.12-2.44v-5.4h-4.76c-.38,0-.58-.3-.58-.74s.2-.76.58-.76h4.76V4ZM47.85,18.4c0,.94.1,1.06,2.08,1.06s2.28-.14,2.6-.74c.26-.48.34-1.48.42-2.74.02-.36.28-.6.68-.6h.1c.46.04.74.3.74.66v.04c-.08,1.68-.26,2.9-.7,3.68-.44.78-1.2,1.14-3.34,1.14-1.58,0-2.64-.06-3.36-.36-.6-.26-.82-.86-.82-1.7V3.98c0-.42.32-.62.78-.62s.82.2.82.62v6.28c1.72-.92,3.78-2.38,4.82-3.44.14-.12.3-.18.48-.18.22,0,.46.1.64.32.14.16.22.34.22.52,0,.2-.1.42-.3.6-1.2,1.12-3.56,2.7-5.86,3.92v6.4Z"/><path d="M59.65,10.68c.22.2.3.4.3.6s-.08.38-.22.52c-.16.16-.38.26-.62.26-.2,0-.38-.06-.54-.2-.64-.6-1.54-1.36-2.4-1.9-.16-.1-.26-.3-.26-.5,0-.16.06-.32.18-.46.18-.2.4-.32.66-.32.14,0,.28.04.42.12.8.48,1.82,1.26,2.48,1.88ZM60.09,15.18c0,.08-.02.16-.04.24-.56,1.78-1.5,4-2.32,5.48-.18.32-.46.46-.74.46-.14,0-.28-.04-.42-.12-.24-.12-.38-.32-.38-.6,0-.16.06-.34.18-.56.82-1.4,1.66-3.44,2.2-5.16.08-.3.34-.46.64-.46.1,0,.2.02.32.04.38.12.56.38.56.68ZM60.65,5.7c.18.18.26.4.26.58,0,.2-.08.38-.22.54-.16.16-.36.24-.58.24-.2,0-.4-.08-.56-.24-.66-.64-1.64-1.42-2.42-1.96-.16-.12-.26-.3-.26-.5,0-.16.06-.34.2-.5.16-.2.42-.3.66-.3.14,0,.28.04.42.12.8.5,1.82,1.34,2.5,2.02ZM71.31,8.26c1.12,0,1.68.46,1.66,1.62,0,1-.04,1.98-.1,2.94h1.2c.36,0,.56.26.56.66,0,.42-.2.62-.56.62h-1.3c-.1,1.26-.24,2.52-.44,3.78h1.2c.36,0,.58.24.58.66s-.22.58-.58.58h-1.44c-.08.4-.18.76-.26,1.06-.34,1.14-.98,1.48-2.04,1.48-.64,0-1.46-.06-1.9-.18-.32-.08-.52-.32-.52-.64,0-.08.02-.14.04-.22.1-.34.3-.54.62-.54.08,0,.16.02.24.04.32.1.92.18,1.32.18.56,0,.82-.14.96-.66l.12-.52h-8.02c-.9,0-1.5-.34-1.5-1.14,0-.18.02-.38.08-.6.28-.98.56-2.12.78-3.28h-1.2c-.36,0-.56-.2-.56-.62s.2-.66.56-.66h1.44c.18-1.02.32-2.02.42-2.94.12-1.18.6-1.62,1.72-1.62h6.92ZM63.75,6.48c-.64,1.12-1.4,2.22-2.12,3-.16.16-.36.26-.58.26-.18,0-.38-.06-.54-.22-.14-.12-.22-.3-.22-.48s.1-.4.28-.6c1.14-1.16,2.3-3.14,2.94-4.84.12-.3.34-.46.62-.46.12,0,.24.02.38.06.28.1.44.32.44.58,0,.1-.02.2-.06.32-.12.32-.26.64-.42.98h9.32c.36,0,.56.28.56.7s-.2.7-.56.7h-10.04ZM63.47,14.1c-.2,1.16-.44,2.28-.68,3.18-.02.1-.04.2-.04.26,0,.24.16.34.5.34h2.7c.26-1.26.48-2.52.64-3.78h-3.12ZM64.67,9.58c-.36,0-.54.1-.58.52-.1.84-.22,1.78-.38,2.72h3.04c.04-.28.06-.56.08-.84.1-.8.18-1.6.24-2.4h-2.4ZM70.91,17.88c.22-1.24.36-2.52.46-3.78h-3.36c-.16,1.26-.36,2.54-.6,3.78h3.5ZM68.43,9.58c-.06,1.08-.16,2.16-.28,3.24h3.3c.06-.88.08-1.78.1-2.7,0-.42-.18-.54-.54-.54h-2.58Z"/><path d="M78.99,13.14c0-.38-.12-.48-.48-.48h-2c-.34,0-.58-.26-.58-.72s.24-.7.6-.7h2.5c1.02,0,1.46.54,1.46,1.58v4.7c.68,1.22,1.52,1.82,2.6,2.06.94.22,2.2.3,3.84.3,2.46,0,4.94-.1,6.98-.26h.1c.48,0,.7.26.72.74v.06c0,.44-.24.74-.76.76-2.04.1-4.76.16-7.14.16-1.76,0-3.3-.14-4.26-.42-1.18-.34-2.2-1.04-2.86-2.18-.84.96-1.7,1.78-2.5,2.36-.2.16-.4.24-.58.24-.2,0-.38-.1-.54-.3-.12-.14-.18-.32-.18-.48,0-.24.1-.46.3-.6.76-.54,1.96-1.52,2.78-2.42v-4.4ZM80.27,6.82c.14.2.2.38.2.58,0,.22-.1.42-.3.58-.14.12-.32.18-.5.18-.24,0-.48-.1-.64-.32-.64-.92-1.68-2.18-2.46-2.92-.14-.14-.2-.3-.2-.46,0-.22.1-.42.28-.56.18-.14.36-.22.54-.22s.38.08.54.22c.84.76,2,2.14,2.54,2.92ZM91.39,8.36c1.14,0,1.66.44,1.66,1.5v6.98c0,1.08-.52,1.52-1.66,1.52h-7.16c-1.12,0-1.62-.44-1.62-1.52v-6.98c0-1.06.52-1.5,1.62-1.5h2.04c.26-.46.44-.98.6-1.48h-4.9c-.34,0-.56-.22-.56-.64,0-.44.22-.66.56-.66h3.16c-.3-.54-.66-1.1-.96-1.5-.08-.1-.12-.2-.12-.3,0-.2.14-.4.42-.52.12-.04.22-.06.32-.06.26,0,.48.12.62.32.4.56.88,1.34,1.26,2.06h2.36c.46-.68.92-1.38,1.26-2.08.12-.22.3-.32.56-.32.1,0,.2.02.32.04.3.08.48.3.48.54,0,.08-.02.16-.06.24-.28.5-.64,1.08-1,1.58h3.26c.34,0,.56.22.56.66s-.22.64-.56.64h-5.44c-.18.5-.36,1-.6,1.48h3.58ZM91.61,11.22v-1.12c0-.4-.18-.5-.56-.5h-6.42c-.4,0-.58.1-.58.5v1.12h7.56ZM84.05,14.1h7.56v-1.68h-7.56v1.68ZM84.05,16.58c0,.38.18.5.58.5h6.42c.38,0,.56-.12.56-.5v-1.28h-7.56v1.28Z"/><path d="M105.93,9.52c.6,2.46,1.74,4.52,3.12,6.16,1.48,1.76,3.3,3.1,5.04,3.9.32.14.46.4.46.68,0,.18-.06.38-.16.54-.16.28-.44.42-.72.42-.16,0-.34-.04-.5-.12-1.92-.94-3.9-2.56-5.32-4.38-1.14-1.46-2.06-3.18-2.64-5.12-.32,1.34-.78,2.54-1.42,3.7-1.42,2.6-3.74,4.68-6.44,5.9-.14.06-.28.1-.4.1-.28,0-.56-.14-.74-.5-.08-.14-.12-.3-.12-.44,0-.28.16-.52.44-.66,2.78-1.26,4.66-2.88,5.94-5.26.82-1.5,1.28-3,1.54-4.92h-7.08c-.4,0-.62-.36-.62-.8s.22-.76.62-.76h7.24c.08-1.12.12-2.4.12-3.88,0-.48.34-.68.82-.68s.8.24.8.68c0,1.4-.04,2.68-.14,3.88h7.92c.4,0,.62.34.62.76,0,.44-.22.8-.62.8h-7.76Z"/><path d="M126.07,14.54h7.64c.38,0,.58.26.58.68s-.2.72-.58.72h-7.64v3.88c0,1.28-.68,1.82-2.56,1.82-.68,0-1.48-.08-2.08-.24-.3-.08-.48-.34-.48-.7,0-.06,0-.14.02-.22.1-.34.32-.54.62-.54.06,0,.1,0,.16.02.48.12,1.08.24,1.6.24.96,0,1.2-.18,1.2-.7v-3.56h-7.7c-.38,0-.58-.3-.58-.72s.2-.68.58-.68h7.7v-1.18c0-.38.32-.56.76-.56.08,0,.18,0,.24.02,1.2-.48,2.32-1.08,3.2-1.66.1-.06.16-.12.16-.16,0-.06-.1-.1-.26-.1h-8.38c-.38,0-.58-.32-.58-.7,0-.42.2-.7.58-.7h9.7c.66,0,1.04.44,1.04.96,0,.34-.18.72-.54,1-1.22.92-2.68,1.72-4.4,2.46v.62ZM132.11,6.36c1.18,0,1.78.52,1.78,1.62v2.52c0,.38-.28.6-.76.6-.44,0-.74-.22-.74-.6v-2.26c0-.42-.22-.54-.62-.54h-13.04c-.4,0-.6.12-.6.54v2.26c0,.38-.3.6-.76.6s-.76-.22-.76-.6v-2.52c0-1.1.6-1.62,1.76-1.62h1.96c-.42-.72-1-1.46-1.4-1.98-.08-.1-.12-.2-.12-.32,0-.22.16-.46.46-.56.12-.06.24-.08.36-.08.24,0,.44.12.6.32.56.7,1.14,1.56,1.72,2.62h2.84c-.34-.84-.76-1.66-1.08-2.18-.08-.1-.1-.22-.1-.32,0-.26.18-.46.5-.56.12-.02.22-.04.32-.04.28,0,.48.12.66.4.38.62.74,1.46,1.2,2.7h2.2c.74-.88,1.34-1.88,1.7-2.62.12-.26.34-.38.6-.38.12,0,.28.02.42.08.32.12.48.32.48.56,0,.1-.04.22-.1.32-.38.64-.9,1.38-1.46,2.04h1.98Z"/><path d="M150.87,9.52c.6,2.46,1.74,4.52,3.12,6.16,1.48,1.76,3.3,3.1,5.04,3.9.32.14.46.4.46.68,0,.18-.06.38-.16.54-.16.28-.44.42-.72.42-.16,0-.34-.04-.5-.12-1.92-.94-3.9-2.56-5.32-4.38-1.14-1.46-2.06-3.18-2.64-5.12-.32,1.34-.78,2.54-1.42,3.7-1.42,2.6-3.74,4.68-6.44,5.9-.14.06-.28.1-.4.1-.28,0-.56-.14-.74-.5-.08-.14-.12-.3-.12-.44,0-.28.16-.52.44-.66,2.78-1.26,4.66-2.88,5.94-5.26.82-1.5,1.28-3,1.54-4.92h-7.08c-.4,0-.62-.36-.62-.8s.22-.76.62-.76h7.24c.08-1.12.12-2.4.12-3.88,0-.48.34-.68.82-.68s.8.24.8.68c0,1.4-.04,2.68-.14,3.88h7.92c.4,0,.62.34.62.76,0,.44-.22.8-.62.8h-7.76Z"/><path d="M171.01,14.54h7.64c.38,0,.58.26.58.68s-.2.72-.58.72h-7.64v3.88c0,1.28-.68,1.82-2.56,1.82-.68,0-1.48-.08-2.08-.24-.3-.08-.48-.34-.48-.7,0-.06,0-.14.02-.22.1-.34.32-.54.62-.54.06,0,.1,0,.16.02.48.12,1.08.24,1.6.24.96,0,1.2-.18,1.2-.7v-3.56h-7.7c-.38,0-.58-.3-.58-.72s.2-.68.58-.68h7.7v-1.18c0-.38.32-.56.76-.56.08,0,.18,0,.24.02,1.2-.48,2.32-1.08,3.2-1.66.1-.06.16-.12.16-.16,0-.06-.1-.1-.26-.1h-8.38c-.38,0-.58-.32-.58-.7,0-.42.2-.7.58-.7h9.7c.66,0,1.04.44,1.04.96,0,.34-.18.72-.54,1-1.22.92-2.68,1.72-4.4,2.46v.62ZM177.05,6.36c1.18,0,1.78.52,1.78,1.62v2.52c0,.38-.28.6-.76.6-.44,0-.74-.22-.74-.6v-2.26c0-.42-.22-.54-.62-.54h-13.04c-.4,0-.6.12-.6.54v2.26c0,.38-.3.6-.76.6s-.76-.22-.76-.6v-2.52c0-1.1.6-1.62,1.76-1.62h1.96c-.42-.72-1-1.46-1.4-1.98-.08-.1-.12-.2-.12-.32,0-.22.16-.46.46-.56.12-.06.24-.08.36-.08.24,0,.44.12.6.32.56.7,1.14,1.56,1.72,2.62h2.84c-.34-.84-.76-1.66-1.08-2.18-.08-.1-.1-.22-.1-.32,0-.26.18-.46.5-.56.12-.02.22-.04.32-.04.28,0,.48.12.66.4.38.62.74,1.46,1.2,2.7h2.2c.74-.88,1.34-1.88,1.7-2.62.12-.26.34-.38.6-.38.12,0,.28.02.42.08.32.12.48.32.48.56,0,.1-.04.22-.1.32-.38.64-.9,1.38-1.46,2.04h1.98Z"/><path d="M181.47,5.26c0-1.12.56-1.58,1.64-1.58h3.06c.88,0,1.4.52,1.4,1.3,0,.22-.04.44-.12.68-.46,1.46-1.2,2.82-1.92,3.94-.06.1-.1.2-.1.3,0,.12.04.24.14.34,1.24,1.4,1.88,2.94,1.88,4.42,0,1.88-.72,2.64-2.12,2.64-.56,0-1-.06-1.3-.14-.34-.08-.54-.34-.54-.72,0-.04,0-.1.02-.14.04-.38.32-.62.62-.62.04,0,.08,0,.14.02.28.06.62.1.96.1.56,0,.72-.3.72-1.34s-.54-2.4-1.78-3.8c-.16-.18-.24-.44-.24-.72,0-.24.06-.48.2-.7.76-1.16,1.4-2.48,1.78-3.66.02-.1.04-.18.04-.24,0-.2-.14-.28-.44-.28h-2c-.38,0-.56.1-.56.5v15.6c0,.42-.28.62-.74.62s-.74-.2-.74-.62V5.26ZM188.29,13.42c-.36,0-.56-.28-.56-.68s.2-.68.56-.68h10.42c.36,0,.54.28.54.68s-.18.68-.54.68h-3.38v5.96c0,.56.2.6,1.32.6.82,0,1.08-.12,1.22-.4.2-.42.24-1.16.28-2.02.02-.4.28-.6.66-.6h.12c.42.04.66.28.66.7v.04c-.04,1.1-.22,2.14-.5,2.72-.24.48-.62.76-1.2.86-.34.06-.96.1-1.56.1-.4,0-.8-.02-1.08-.06-1.04-.14-1.4-.5-1.4-1.56v-6.34h-1.92c-.14,3.18-.9,4.86-2,6.02-.9.94-2.14,1.68-3.42,2.16-.14.06-.26.08-.38.08-.3,0-.56-.16-.7-.52-.06-.12-.08-.24-.08-.34,0-.3.18-.54.52-.66,1.1-.38,2.14-.98,2.92-1.76.84-.84,1.54-2.2,1.64-4.98h-2.14ZM197.59,5.26c1.04,0,1.52.58,1.52,1.64v1.92c0,.44-.32.62-.76.62-.46,0-.76-.18-.76-.5v-1.78c0-.42-.14-.56-.52-.56h-7.52c-.38,0-.52.14-.52.56v1.74c0,.34-.3.52-.74.52s-.72-.18-.72-.62v-1.9c0-1.06.46-1.64,1.5-1.64h3.2v-1.6c0-.34.32-.52.78-.52s.8.18.8.52v1.6h3.74ZM190.03,10.04c-.38,0-.58-.3-.58-.68s.2-.68.58-.68h6.58c.36,0,.58.3.58.68s-.22.68-.58.68h-6.58Z"/><path d="M202.75,7.76v.1c-.1,1.42-.36,3.24-.76,4.66-.08.26-.3.38-.56.38-.08,0-.16-.02-.26-.04-.26-.08-.44-.26-.44-.56,0-.08.02-.16.04-.26.36-1.18.64-2.96.72-4.28.02-.36.2-.56.58-.56h.1c.46.04.58.22.58.56ZM204.97,21.24c0,.36-.28.56-.74.56-.42,0-.74-.2-.74-.56V3.76c0-.36.32-.56.74-.56.46,0,.74.2.74.56v17.48ZM206.01,6.56c.2,0,.34.1.42.28.28.62.58,1.4.74,2,.02.08.04.16.04.22,0,.22-.14.36-.38.46-.12.06-.24.08-.34.08-.2,0-.36-.1-.44-.38-.16-.6-.38-1.32-.62-1.86-.06-.12-.08-.22-.08-.3,0-.2.12-.34.36-.44.12-.04.22-.06.3-.06ZM219.03,9.64c.32,0,.5.2.5.56s-.18.6-.5.6h-11.76c-.34,0-.52-.22-.52-.58,0-.38.18-.58.52-.58h4.84v-1.4h-3.9c-.32,0-.48-.24-.48-.58s.16-.58.48-.58h3.9v-1.24h-4.48c-.32,0-.5-.22-.5-.58s.18-.6.5-.6h4.48v-.96c0-.36.26-.52.7-.52s.66.16.66.52v.96h5.22c.32,0,.5.24.5.6,0,.34-.18.58-.5.58h-5.22v1.24h4.48c.28,0,.46.24.46.58s-.18.58-.46.58h-4.48v1.4h5.56ZM209.13,18.32v2.92c0,.36-.3.54-.74.54s-.72-.18-.72-.54v-7.74c0-1.08.52-1.5,1.68-1.5h6.94c1.18,0,1.72.42,1.72,1.5v6.5c0,1.26-.8,1.68-2.36,1.68-.72,0-1.38-.08-1.96-.22-.3-.08-.48-.28-.48-.6,0-.06,0-.14.02-.22.06-.36.3-.5.56-.5.06,0,.14,0,.2.02.44.14,1,.22,1.5.22.9,0,1.1-.08,1.1-.62v-1.44h-7.46ZM216.59,13.66c0-.4-.2-.5-.6-.5h-6.28c-.4,0-.58.1-.58.5v.9h7.46v-.9ZM216.59,15.72h-7.46v1.44h7.46v-1.44Z"/><path d="M222.03,6.74c-.34,0-.52-.28-.52-.66,0-.42.18-.68.52-.68h2.86v-1.74c0-.34.26-.52.72-.52.42,0,.72.18.72.52v1.74h2.54c.36,0,.54.26.54.68,0,.38-.18.66-.54.66h-2.54v1.92h3.1c.36,0,.54.24.54.66s-.18.68-.54.68h-7.96c-.36,0-.54-.28-.54-.68,0-.42.18-.66.54-.66h3.42v-1.92h-2.86ZM221.47,14.64c-.36,0-.54-.26-.54-.66,0-.42.18-.68.54-.68h4.82c.44-.9.8-1.84,1-2.6.1-.32.32-.48.6-.48.06,0,.14.02.22.04.32.08.5.26.5.56,0,.08-.02.16-.04.24-.22.68-.56,1.48-.98,2.24h1.82c.36,0,.54.26.54.68s-.18.66-.54.66h-3.08v1.92h2.74c.38,0,.56.26.56.68s-.18.68-.56.68h-2.74v3.38c0,.34-.3.52-.72.52-.44,0-.72-.18-.72-.52v-3.38h-3c-.36,0-.54-.28-.54-.68s.18-.68.54-.68h3v-1.92h-3.42ZM223.27,10.2c.24,0,.44.14.56.4.24.5.48,1.14.58,1.68.02.08.02.14.02.2,0,.3-.16.5-.48.56-.08.02-.16.04-.24.04-.28,0-.5-.14-.56-.46-.12-.54-.34-1.16-.54-1.64-.02-.08-.04-.16-.04-.22,0-.26.18-.46.46-.52.08-.02.16-.04.24-.04ZM231.95,11.66v9.52c0,.36-.28.6-.74.6s-.72-.24-.72-.6V5.48c0-1.14.58-1.64,1.76-1.64h4.96c1.12,0,1.66.42,1.66,1.38,0,.1,0,.22-.02.32-.06.86-.22,1.8-.48,2.46-.32.8-1.06,1.02-2.06,1.02-.68,0-1.3-.06-1.84-.16-.32-.06-.52-.34-.52-.7v-.14c.06-.38.3-.54.6-.54.04,0,.08,0,.12.02.46.1.98.16,1.42.16.56,0,.86-.12,1-.46.14-.34.24-.92.28-1.54v-.04c0-.3-.22-.42-.58-.42h-4.24c-.38,0-.6.12-.6.5v4.62h5.26c1.04,0,1.5.44,1.5,1.24,0,.2-.02.42-.08.66-.44,1.86-1.16,3.66-2.1,5.26.8.92,1.72,1.74,2.78,2.52.22.16.34.42.34.66,0,.18-.06.34-.16.48-.18.24-.42.34-.64.34-.18,0-.34-.06-.5-.18-1-.8-1.86-1.66-2.62-2.58-.68.96-1.42,1.8-2.22,2.52-.18.18-.4.26-.58.26s-.34-.08-.48-.22c-.14-.16-.22-.36-.22-.54,0-.22.08-.4.24-.54.9-.76,1.7-1.66,2.38-2.64-1.2-1.8-1.92-3.78-2.32-5.9h-.58ZM233.77,11.66c.34,1.66.96,3.2,1.88,4.64.72-1.3,1.26-2.7,1.56-4.12.02-.1.04-.18.04-.24,0-.22-.1-.28-.4-.28h-3.08Z"/><path d="M241.83,9.84c-.36,0-.56-.3-.56-.7s.2-.68.56-.68h2.7v-2.64c-.78.16-1.56.28-2.32.36h-.1c-.38,0-.62-.2-.68-.62v-.1c0-.38.2-.6.58-.64,2.02-.16,4.36-.74,5.8-1.42.12-.06.24-.08.34-.08.26,0,.48.12.62.4.06.14.1.26.1.38,0,.24-.14.46-.42.56-.72.32-1.56.6-2.46.82v2.98h2.34c.36,0,.56.26.56.66s-.2.72-.56.72h-2.3c.6,1.34,1.68,2.52,2.64,3.38.16.14.26.36.26.58,0,.18-.06.34-.18.48-.14.16-.3.22-.48.22-.2,0-.42-.1-.6-.3-.66-.7-1.48-1.88-1.92-2.94.14,1,.24,2.22.24,3.08v6.9c0,.38-.3.58-.76.58s-.7-.2-.7-.58v-6.3c0-1.02.18-2.32.3-3.36-.44,1.64-1.54,3.98-2.64,5.32-.16.22-.38.34-.6.34-.14,0-.3-.06-.46-.18-.2-.14-.3-.36-.3-.58,0-.18.08-.38.22-.54,1.48-1.66,2.7-4.04,3.28-6.1h-2.5ZM258.91,14.26s.1-.02.14-.02c.28,0,.48.22.56.58.02.08.02.16.02.24,0,.3-.14.56-.42.62l-1.94.44v5.12c0,.38-.28.58-.76.58-.44,0-.76-.2-.76-.58v-4.76l-6.66,1.54c-.06.02-.1.02-.16.02-.3,0-.54-.2-.6-.58-.02-.06-.02-.14-.02-.2,0-.3.12-.56.42-.62l7.02-1.64V3.84c0-.38.32-.58.76-.58.48,0,.76.2.76.58v10.8l1.64-.38ZM253.79,12.6c.12.16.2.36.2.54,0,.2-.08.4-.22.54-.16.14-.36.2-.54.2-.2,0-.4-.08-.54-.24-.82-.92-2.02-1.98-2.96-2.62-.16-.12-.24-.3-.24-.48s.08-.38.2-.52c.14-.18.36-.26.56-.26.16,0,.3.04.44.14.96.66,2.26,1.74,3.1,2.7ZM254.45,7.5c.12.12.18.34.18.54s-.06.38-.18.52c-.14.16-.34.24-.54.24s-.42-.08-.54-.24c-.78-.9-2.02-1.94-2.86-2.52-.22-.18-.34-.38-.34-.6,0-.16.06-.34.2-.48.14-.16.34-.24.54-.24.18,0,.36.06.52.16,1.02.64,2.2,1.68,3.02,2.62Z"/><path d="M271.01,14.54h7.64c.38,0,.58.26.58.68s-.2.72-.58.72h-7.64v3.88c0,1.28-.68,1.82-2.56,1.82-.68,0-1.48-.08-2.08-.24-.3-.08-.48-.34-.48-.7,0-.06,0-.14.02-.22.1-.34.32-.54.62-.54.06,0,.1,0,.16.02.48.12,1.08.24,1.6.24.96,0,1.2-.18,1.2-.7v-3.56h-7.7c-.38,0-.58-.3-.58-.72s.2-.68.58-.68h7.7v-1.18c0-.38.32-.56.76-.56.08,0,.18,0,.24.02,1.2-.48,2.32-1.08,3.2-1.66.1-.06.16-.12.16-.16,0-.06-.1-.1-.26-.1h-8.38c-.38,0-.58-.32-.58-.7,0-.42.2-.7.58-.7h9.7c.66,0,1.04.44,1.04.96,0,.34-.18.72-.54,1-1.22.92-2.68,1.72-4.4,2.46v.62ZM277.05,6.36c1.18,0,1.78.52,1.78,1.62v2.52c0,.38-.28.6-.76.6-.44,0-.74-.22-.74-.6v-2.26c0-.42-.22-.54-.62-.54h-13.04c-.4,0-.6.12-.6.54v2.26c0,.38-.3.6-.76.6s-.76-.22-.76-.6v-2.52c0-1.1.6-1.62,1.76-1.62h1.96c-.42-.72-1-1.46-1.4-1.98-.08-.1-.12-.2-.12-.32,0-.22.16-.46.46-.56.12-.06.24-.08.36-.08.24,0,.44.12.6.32.56.7,1.14,1.56,1.72,2.62h2.84c-.34-.84-.76-1.66-1.08-2.18-.08-.1-.1-.22-.1-.32,0-.26.18-.46.5-.56.12-.02.22-.04.32-.04.28,0,.48.12.66.4.38.62.74,1.46,1.2,2.7h2.2c.74-.88,1.34-1.88,1.7-2.62.12-.26.34-.38.6-.38.12,0,.28.02.42.08.32.12.48.32.48.56,0,.1-.04.22-.1.32-.38.64-.9,1.38-1.46,2.04h1.98Z"/><path d="M281.85,5.52c-.36,0-.56-.3-.56-.72s.2-.68.56-.68h5.98c.38,0,.56.28.56.68s-.18.72-.56.72h-2.36c-.24,1.7-.74,3.36-1.4,4.94.12-.02.26-.04.42-.04h1.96c1.08,0,1.48.52,1.48,1.68v6.54c0,1.16-.4,1.66-1.48,1.66h-2.44c-1.12,0-1.54-.5-1.54-1.66v-3.8c0-.54.06-1.08.14-1.56-.2.36-.4.7-.6,1-.14.24-.36.34-.6.34-.18,0-.38-.08-.54-.2-.18-.12-.3-.32-.3-.56,0-.16.06-.32.18-.48,1.82-2.38,2.82-5.04,3.24-7.86h-2.14ZM286.51,12.38c0-.44-.12-.6-.5-.6h-1.62c-.36,0-.5.16-.5.6v5.94c0,.46.14.6.5.6h1.62c.38,0,.5-.14.5-.6v-5.94ZM289.65,5.5c-.36,0-.56-.28-.56-.72,0-.4.2-.68.56-.68h9.36c.38,0,.58.28.58.68,0,.44-.2.72-.58.72h-1.72v5.44h1.9c.36,0,.56.3.56.7,0,.44-.2.74-.56.74h-1.9v8.9c0,.36-.3.54-.78.54-.42,0-.78-.18-.78-.54v-8.9h-3.1c-.16,4.52-1.2,7.14-2.98,9.14-.18.2-.42.32-.66.32-.18,0-.36-.06-.54-.2-.22-.16-.32-.4-.32-.6,0-.18.06-.34.2-.48,1.72-1.82,2.6-4.26,2.76-8.18h-1.96c-.36,0-.56-.3-.56-.74,0-.4.2-.7.56-.7h1.98v-5.44h-1.46ZM292.65,10.94h3.08v-5.44h-3.08v5.44Z"/><path d="M312.73,13.3c1.16,0,1.68.48,1.66,1.6l-.08,4.26v.06c0,.48.24.56,1.82.56,1.4,0,1.6-.2,1.72-.82.12-.5.18-1.16.24-1.96.02-.36.28-.56.72-.56h.06c.46.02.74.32.74.68-.04,1.06-.16,2.04-.42,2.72-.34,1.04-.98,1.38-3.14,1.38-1.28,0-2.1-.08-2.6-.28-.46-.2-.72-.6-.72-1.2v-.08l.06-4.42c0-.38-.18-.5-.56-.5h-3c-.9,3.46-3.18,5.5-6.96,6.84-.12.04-.22.06-.32.06-.3,0-.54-.18-.68-.48-.06-.12-.08-.24-.08-.38,0-.3.16-.58.44-.66,3-1.02,5.1-2.42,6-5.38h-4.84c-.36,0-.56-.34-.56-.74s.2-.7.56-.7h5.16c.12-.66.16-1.4.18-2.2,0-.34.34-.58.72-.58h.06c.46.02.76.24.76.6,0,.78-.06,1.5-.16,2.18h3.22ZM317.15,5.22c1.2,0,1.74.54,1.74,1.72v1.68c0,.4-.28.62-.74.62s-.78-.22-.78-.62v-1.48c0-.42-.18-.54-.62-.54h-4.28v2.72c0,.58.06.68,1.34.68,1.06,0,1.38-.14,1.52-.32.12-.14.18-.52.22-.92.04-.34.3-.5.62-.5.04,0,.1,0,.16.02.36.04.6.26.6.62v.1c-.08.78-.28,1.46-.68,1.78-.38.32-1.08.48-2.52.48-2.44,0-2.74-.4-2.74-1.46v-3.2h-2.4c-.28,3-2.28,4.66-5.62,5.44-.06.02-.12.02-.18.02-.34,0-.62-.2-.72-.58-.02-.06-.02-.14-.02-.2,0-.32.2-.58.5-.64,2.82-.56,4.4-1.78,4.58-4.04h-3.52c-.42,0-.62.12-.62.54v1.5c0,.4-.32.62-.76.62s-.74-.22-.74-.62v-1.7c0-1.18.54-1.72,1.74-1.72h6.08v-1.42c0-.38.3-.56.76-.56.5,0,.76.18.76.56v1.42h6.32Z"/><path d="M321.47,5.26c0-1.12.56-1.58,1.64-1.58h3.06c.88,0,1.4.52,1.4,1.3,0,.22-.04.44-.12.68-.46,1.46-1.2,2.82-1.92,3.94-.06.1-.1.2-.1.3,0,.12.04.24.14.34,1.24,1.4,1.88,2.94,1.88,4.42,0,1.88-.72,2.64-2.12,2.64-.56,0-1-.06-1.3-.14-.34-.08-.54-.34-.54-.72,0-.04,0-.1.02-.14.04-.38.32-.62.62-.62.04,0,.08,0,.14.02.28.06.62.1.96.1.56,0,.72-.3.72-1.34s-.54-2.4-1.78-3.8c-.16-.18-.24-.44-.24-.72,0-.24.06-.48.2-.7.76-1.16,1.4-2.48,1.78-3.66.02-.1.04-.18.04-.24,0-.2-.14-.28-.44-.28h-2c-.38,0-.56.1-.56.5v15.6c0,.42-.28.62-.74.62s-.74-.2-.74-.62V5.26ZM328.29,13.42c-.36,0-.56-.28-.56-.68s.2-.68.56-.68h10.42c.36,0,.54.28.54.68s-.18.68-.54.68h-3.38v5.96c0,.56.2.6,1.32.6.82,0,1.08-.12,1.22-.4.2-.42.24-1.16.28-2.02.02-.4.28-.6.66-.6h.12c.42.04.66.28.66.7v.04c-.04,1.1-.22,2.14-.5,2.72-.24.48-.62.76-1.2.86-.34.06-.96.1-1.56.1-.4,0-.8-.02-1.08-.06-1.04-.14-1.4-.5-1.4-1.56v-6.34h-1.92c-.14,3.18-.9,4.86-2,6.02-.9.94-2.14,1.68-3.42,2.16-.14.06-.26.08-.38.08-.3,0-.56-.16-.7-.52-.06-.12-.08-.24-.08-.34,0-.3.18-.54.52-.66,1.1-.38,2.14-.98,2.92-1.76.84-.84,1.54-2.2,1.64-4.98h-2.14ZM337.59,5.26c1.04,0,1.52.58,1.52,1.64v1.92c0,.44-.32.62-.76.62-.46,0-.76-.18-.76-.5v-1.78c0-.42-.14-.56-.52-.56h-7.52c-.38,0-.52.14-.52.56v1.74c0,.34-.3.52-.74.52s-.72-.18-.72-.62v-1.9c0-1.06.46-1.64,1.5-1.64h3.2v-1.6c0-.34.32-.52.78-.52s.8.18.8.52v1.6h3.74ZM330.03,10.04c-.38,0-.58-.3-.58-.68s.2-.68.58-.68h6.58c.36,0,.58.3.58.68s-.22.68-.58.68h-6.58Z"/><path d="M111.42,34.73c.51,0,.81.39.81.99s-.3.99-.81.99h-2.1c.78,2.04,1.68,3.69,2.76,5.16.18.24.27.51.27.78,0,.3-.09.57-.33.72-.18.15-.39.24-.63.24-.3,0-.63-.15-.84-.54-.69-1.23-1.29-2.52-1.8-4.08.24,1.8.48,3.93.48,5.97v11.04c0,.57-.39.9-1.08.9s-1.02-.33-1.02-.9v-10.02c0-1.29.18-3.63.45-5.91-.63,2.55-1.77,5.76-3.15,7.95-.21.36-.54.54-.9.54-.21,0-.42-.09-.6-.24-.21-.18-.36-.51-.36-.84,0-.27.09-.54.24-.78,1.86-2.7,3.36-6.51,4.05-9.99h-2.79c-.54,0-.81-.39-.81-.99s.27-.99.81-.99h3.06v-5.01c0-.57.36-.9,1.02-.9s1.08.33,1.08.9v5.01h2.19ZM119.67,40.13h-7.38c-.48,0-.78-.33-.78-.9,0-.51.3-.84.78-.84h4.05v-2.04h-2.61c-.45,0-.69-.39-.69-.87s.24-.81.69-.81h2.61v-1.8h-3.57c-.48,0-.75-.33-.75-.84s.27-.9.75-.9h3.57v-1.5c0-.51.36-.78.99-.78s.99.27.99.78v1.5h5.01v-1.5c0-.51.36-.78.99-.78s.99.27.99.78v1.5h4.26c.48,0,.75.36.75.9,0,.51-.27.84-.75.84h-4.26v1.8h3.36c.45,0,.72.3.72.81,0,.48-.27.87-.72.87h-3.36v2.04h4.8c.48,0,.78.33.78.84,0,.57-.3.9-.78.9h-8.4v1.86h4.95c1.56,0,2.28.63,2.28,2.01v5.82h1.41c.51,0,.78.36.78.93s-.27.93-.78.93h-1.41v2.34c0,1.74-.9,2.52-3.03,2.52-1.08,0-2.25-.06-3-.24-.42-.09-.69-.42-.69-.9,0-.09,0-.18.03-.27.09-.54.48-.78.87-.78.06,0,.12,0,.18.03.69.15,1.59.27,2.28.27,1.05,0,1.35-.21,1.35-1.08v-1.89h-12.15v4.41c0,.54-.39.81-1.02.81s-1.02-.27-1.02-.81v-4.41h-1.08c-.51,0-.78-.36-.78-.93s.27-.93.78-.93h1.08v-5.76c0-1.38.75-2.07,2.28-2.07h4.65v-1.86ZM115.56,43.79c-.51,0-.78.15-.78.66v1.56h4.89v-2.22h-4.11ZM114.78,49.82h4.89v-2.13h-4.89v2.13ZM123.33,32.87h-5.01v1.8h5.01v-1.8ZM118.32,38.39h5.01v-2.04h-5.01v2.04ZM126.93,44.45c0-.51-.27-.66-.78-.66h-4.44v2.22h5.22v-1.56ZM126.93,47.69h-5.22v2.13h5.22v-2.13Z"/><path d="M139.6,50.42c.93,1.92,2.58,2.82,4.38,3.18,1.38.27,3.24.39,5.7.39,3.69,0,7.2-.12,10.26-.39h.15c.69,0,1.05.42,1.08,1.11v.09c0,.66-.36,1.11-1.14,1.14-3.03.15-6.96.24-10.53.24-3.18,0-4.83-.15-6.33-.51-2.1-.54-3.78-1.65-4.71-3.45-1.08,1.35-2.58,2.73-3.84,3.63-.21.12-.42.21-.63.21-.33,0-.63-.18-.9-.51-.18-.27-.27-.51-.27-.75,0-.33.15-.6.45-.81,1.29-.9,2.94-2.31,4.08-3.66v-6.45c0-.6-.18-.78-.75-.78h-2.7c-.54,0-.9-.36-.9-1.05s.36-1.05.9-1.05h3.51c1.53,0,2.19.78,2.19,2.34v7.08ZM135.27,29.6c.27,0,.54.09.75.3,1.29,1.17,2.82,3,3.84,4.5.15.24.24.48.24.72,0,.36-.18.66-.48.9-.27.18-.57.3-.87.3s-.6-.12-.81-.45c-.96-1.44-2.49-3.33-3.66-4.47-.18-.21-.3-.45-.3-.66,0-.27.15-.54.45-.81.27-.21.57-.33.84-.33ZM159.63,38.72c.51,0,.84.39.84,1.05s-.33.96-.84.96h-17.67c-.54,0-.84-.36-.84-.96,0-.66.3-1.05.84-1.05h7.86v-3.75h-4.71c-.45.81-.96,1.56-1.5,2.28-.21.27-.57.45-.96.45-.24,0-.48-.06-.69-.21-.3-.24-.45-.54-.45-.87,0-.21.09-.45.24-.63,1.41-1.65,2.43-3.75,3.09-5.85.12-.42.51-.69.99-.69.12,0,.24,0,.36.03.57.12.87.48.87.93,0,.09-.03.21-.06.3-.27.75-.57,1.5-.9,2.25h3.72v-3.21c0-.54.39-.87,1.08-.87s1.11.33,1.11.87v3.21h6.45c.51,0,.84.36.84.99s-.33,1.02-.84,1.02h-6.45v3.75h7.62ZM155.88,43.01c1.68,0,2.46.66,2.46,2.28v3.87c0,1.65-.75,2.28-2.46,2.28h-10.11c-1.71,0-2.46-.63-2.46-2.28v-3.87c0-1.62.78-2.28,2.46-2.28h10.11ZM155.28,49.46c.57,0,.84-.15.84-.72v-3c0-.6-.27-.75-.84-.75h-8.91c-.54,0-.84.15-.84.75v3c0,.57.3.72.84.72h8.91Z"/><path d="M167.61,43.94c0-1.29.09-2.76.24-4.11-.78,1.32-1.8,2.67-2.88,3.87-.24.3-.57.45-.87.45-.27,0-.54-.12-.81-.36-.24-.27-.39-.57-.39-.87s.12-.57.33-.84c3.48-3.72,5.79-7.77,7.11-12.3.12-.45.51-.69,1.02-.69.15,0,.33.03.51.06.54.15.81.54.81.99,0,.12-.03.27-.06.39-.63,2.04-1.56,4.17-2.67,6.36v18.9c0,.57-.45.9-1.17.9s-1.17-.33-1.17-.9v-11.85ZM178.47,52.04c0,.9.24,1.23,1.41,1.35.66.06,1.53.09,2.79.09,1.56,0,2.82-.12,3.57-.33.57-.15,1.08-.57,1.29-1.11.3-.72.45-2.1.54-3.6.03-.72.45-1.05,1.11-1.05h.15c.66.06,1.08.42,1.08,1.08v.06c-.06,1.86-.39,3.72-.84,4.83-.48,1.17-1.38,1.77-2.76,2.07-1.08.24-2.52.33-4.23.33-1.56,0-2.79-.03-3.75-.15-2.07-.24-2.73-1.08-2.73-3v-22.59c0-.6.48-.93,1.17-.93s1.2.33,1.2.93v10.74c3.24-1.8,6.36-4.11,8.88-6.81.24-.21.51-.33.78-.33.3,0,.63.15.9.39.3.3.45.63.45.96,0,.3-.12.6-.42.84-2.67,2.67-6.45,5.34-10.59,7.53v8.7Z"/><path d="M202.11,35.24c-.03,1.83-.06,3.69-.21,5.52h4.68c.54,0,.84.48.84,1.08s-.3,1.08-.84,1.08h-4.95c0,.12-.03.24-.06.36l-.18,1.14c1.41,2.7,3.51,4.86,5.07,6.18.39.3.57.69.57,1.05,0,.27-.12.57-.3.84-.3.33-.63.51-.96.51-.27,0-.54-.12-.84-.33-1.47-1.32-3.18-3.6-4.26-5.46-1.05,3.21-2.73,5.7-5.31,8.04-.27.24-.57.36-.84.36-.33,0-.63-.12-.9-.42-.24-.24-.36-.54-.36-.84s.15-.6.42-.84c3.51-2.91,5.13-5.97,5.82-10.59h-5.19c-.57,0-.87-.42-.87-1.05s.3-1.11.87-1.11h5.43c.15-1.83.18-3.69.21-5.52h-2.37c-.66,1.35-1.41,2.61-2.22,3.63-.27.36-.57.51-.9.51-.24,0-.48-.09-.69-.27-.24-.18-.39-.48-.39-.81,0-.24.09-.51.27-.75,1.74-2.1,3.06-4.95,3.72-7.8.15-.54.48-.78.96-.78.12,0,.24.03.39.06.54.12.75.42.75.84,0,.12-.03.27-.06.42-.24.9-.54,1.86-.9,2.82h7.68c.54,0,.84.45.84,1.05s-.3,1.08-.84,1.08h-4.08ZM219.81,52.22c0,1.89-.87,2.61-2.7,2.61h-6.15c-1.83,0-2.7-.72-2.7-2.61v-17.88c0-1.89.87-2.64,2.7-2.64h6.15c1.83,0,2.7.75,2.7,2.64v17.88ZM210.6,51.8c0,.63.3.84.9.84h5.1c.57,0,.87-.21.87-.84v-17.04c0-.66-.3-.84-.87-.84h-5.1c-.6,0-.9.18-.9.84v17.04Z"/><path d="M233.76,34.34c-.45-.81-.93-1.56-1.41-2.19-.09-.12-.12-.3-.12-.45,0-.33.18-.63.57-.81.18-.09.39-.12.54-.12.36,0,.69.18.9.45.96,1.38,2.16,3.33,2.94,4.92.09.18.12.36.12.51,0,.39-.21.72-.63.93-.21.09-.42.15-.6.15-.36,0-.63-.18-.81-.51-.15-.33-.33-.66-.51-1.02-3.66.51-7.26.93-10.74,1.14h-.06c-.45,0-.87-.42-.93-1.05v-.09c0-.54.33-1.05.84-1.08.48,0,.96-.03,1.44-.06,1.26-2.01,2.25-3.9,2.91-5.52.15-.45.51-.66.96-.66.15,0,.3.03.48.06.54.15.81.45.81.84,0,.12-.03.24-.09.36-.69,1.56-1.59,3.21-2.64,4.8,2.01-.18,4.02-.36,6.03-.6ZM226.98,56c0,.51-.45.84-1.08.84s-1.08-.33-1.08-.84v-14.85c0-1.71.75-2.4,2.67-2.4h5.64c1.92,0,2.67.69,2.67,2.4v12.87c0,1.56-.81,2.4-2.73,2.4-.87,0-1.74-.12-2.31-.3-.33-.06-.6-.39-.6-.9,0-.12,0-.24.03-.36.12-.54.45-.81.81-.81.06,0,.15,0,.21.03.42.12,1.14.21,1.62.21.69,0,.87-.18.87-.9v-3.36h-6.72v5.97ZM233.7,41.54c0-.57-.3-.78-.9-.78h-4.92c-.57,0-.9.21-.9.78v1.95h6.72v-1.95ZM226.98,48.11h6.72v-2.7h-6.72v2.7ZM240.69,38.03c0,1.11.27,1.26,3.06,1.26,2.13,0,3.06-.12,3.51-.36.36-.18.63-.54.78-.96.12-.45.21-1.08.27-1.77.03-.45.39-.75.93-.75h.15c.6.06,1.05.39,1.05.9v.06c-.09,1.17-.36,2.49-.63,3-.3.57-.75,1.08-1.44,1.41-.87.42-2.46.51-5.04.51-4.11,0-4.83-.6-4.83-2.67v-8.79c0-.54.45-.84,1.11-.84s1.08.3,1.08.84v3.81c2.52-.75,5.25-1.95,7.14-3.24.24-.15.48-.21.69-.21.33,0,.63.15.87.45.18.24.27.51.27.75,0,.33-.15.63-.45.81-2.37,1.47-5.52,2.76-8.52,3.54v2.25ZM240.69,52.64c0,.93.21,1.26,3.6,1.26,2.31,0,3.3-.27,3.63-.84.3-.51.48-1.53.54-2.61.03-.54.42-.9,1.02-.9h.12c.66.06,1.05.42,1.05.99v.06c-.06,1.23-.27,2.64-.63,3.36-.24.48-.66.96-1.23,1.32-.69.42-2.28.66-4.83.66-4.71,0-5.46-.51-5.46-2.64v-9.39c0-.54.45-.84,1.11-.84s1.08.3,1.08.84v3.39c2.61-.75,5.34-1.95,7.35-3.33.15-.09.33-.15.51-.15.36,0,.69.18.9.51.15.21.21.45.21.69,0,.33-.15.66-.45.84-2.34,1.53-5.37,2.76-8.52,3.57v3.21Z"/><path d="M254.43,32.42c-.54,0-.84-.45-.84-1.08s.3-1.02.84-1.02h8.97c.57,0,.84.42.84,1.02s-.27,1.08-.84,1.08h-3.54c-.36,2.55-1.11,5.04-2.1,7.41.18-.03.39-.06.63-.06h2.94c1.62,0,2.22.78,2.22,2.52v9.81c0,1.74-.6,2.49-2.22,2.49h-3.66c-1.68,0-2.31-.75-2.31-2.49v-5.7c0-.81.09-1.62.21-2.34-.3.54-.6,1.05-.9,1.5-.21.36-.54.51-.9.51-.27,0-.57-.12-.81-.3-.27-.18-.45-.48-.45-.84,0-.24.09-.48.27-.72,2.73-3.57,4.23-7.56,4.86-11.79h-3.21ZM261.42,42.71c0-.66-.18-.9-.75-.9h-2.43c-.54,0-.75.24-.75.9v8.91c0,.69.21.9.75.9h2.43c.57,0,.75-.21.75-.9v-8.91ZM266.13,32.39c-.54,0-.84-.42-.84-1.08,0-.6.3-1.02.84-1.02h14.04c.57,0,.87.42.87,1.02,0,.66-.3,1.08-.87,1.08h-2.58v8.16h2.85c.54,0,.84.45.84,1.05,0,.66-.3,1.11-.84,1.11h-2.85v13.35c0,.54-.45.81-1.17.81-.63,0-1.17-.27-1.17-.81v-13.35h-4.65c-.24,6.78-1.8,10.71-4.47,13.71-.27.3-.63.48-.99.48-.27,0-.54-.09-.81-.3-.33-.24-.48-.6-.48-.9,0-.27.09-.51.3-.72,2.58-2.73,3.9-6.39,4.14-12.27h-2.94c-.54,0-.84-.45-.84-1.11,0-.6.3-1.05.84-1.05h2.97v-8.16h-2.19ZM270.63,40.55h4.62v-8.16h-4.62v8.16Z"/><path d="M300.75,44.09c1.74,0,2.52.72,2.49,2.4l-.12,6.39v.09c0,.72.36.84,2.73.84,2.1,0,2.4-.3,2.58-1.23.18-.75.27-1.74.36-2.94.03-.54.42-.84,1.08-.84h.09c.69.03,1.11.48,1.11,1.02-.06,1.59-.24,3.06-.63,4.08-.51,1.56-1.47,2.07-4.71,2.07-1.92,0-3.15-.12-3.9-.42-.69-.3-1.08-.9-1.08-1.8v-.12l.09-6.63c0-.57-.27-.75-.84-.75h-4.5c-1.35,5.19-4.77,8.25-10.44,10.26-.18.06-.33.09-.48.09-.45,0-.81-.27-1.02-.72-.09-.18-.12-.36-.12-.57,0-.45.24-.87.66-.99,4.5-1.53,7.65-3.63,9-8.07h-7.26c-.54,0-.84-.51-.84-1.11s.3-1.05.84-1.05h7.74c.18-.99.24-2.1.27-3.3,0-.51.51-.87,1.08-.87h.09c.69.03,1.14.36,1.14.9,0,1.17-.09,2.25-.24,3.27h4.83ZM307.38,31.97c1.8,0,2.61.81,2.61,2.58v2.52c0,.6-.42.93-1.11.93s-1.17-.33-1.17-.93v-2.22c0-.63-.27-.81-.93-.81h-6.42v4.08c0,.87.09,1.02,2.01,1.02,1.59,0,2.07-.21,2.28-.48.18-.21.27-.78.33-1.38.06-.51.45-.75.93-.75.06,0,.15,0,.24.03.54.06.9.39.9.93v.15c-.12,1.17-.42,2.19-1.02,2.67-.57.48-1.62.72-3.78.72-3.66,0-4.11-.6-4.11-2.19v-4.8h-3.6c-.42,4.5-3.42,6.99-8.43,8.16-.09.03-.18.03-.27.03-.51,0-.93-.3-1.08-.87-.03-.09-.03-.21-.03-.3,0-.48.3-.87.75-.96,4.23-.84,6.6-2.67,6.87-6.06h-5.28c-.63,0-.93.18-.93.81v2.25c0,.6-.48.93-1.14.93s-1.11-.33-1.11-.93v-2.55c0-1.77.81-2.58,2.61-2.58h9.12v-2.13c0-.57.45-.84,1.14-.84.75,0,1.14.27,1.14.84v2.13h9.48Z"/><path d="M339.81,53.66c.54,0,.84.45.84,1.05s-.3,1.05-.84,1.05h-25.68c-.54,0-.84-.45-.84-1.05s.3-1.05.84-1.05h11.52v-3.69h-8.52c-.51,0-.81-.45-.81-1.05s.3-.99.81-.99h8.52v-2.13c0-.51.33-.96,1.11-.96s1.17.42,1.17.96v2.13h8.94c.51,0,.81.39.81.99s-.3,1.05-.81,1.05h-8.94v3.69h11.88ZM337.32,31.58c1.83,0,2.64.75,2.64,2.4v2.79c0,.6-.51.9-1.23.9s-1.17-.3-1.17-.9v-2.37c0-.57-.3-.75-.96-.75h-19.11c-.63,0-1.02.18-1.02.75v2.34c0,.57-.48.87-1.2.87s-1.2-.3-1.2-.9v-2.73c0-1.65.81-2.4,2.61-2.4h8.91v-1.92c0-.57.39-.93,1.2-.93s1.14.36,1.14.93v1.92h9.39ZM318.27,38.36c-.51,0-.81-.39-.81-.99s.3-.99.81-.99h17.43c.54,0,.81.42.81.99,0,.6-.27.99-.81.99h-10.41c-.72,1.35-1.44,2.7-2.34,3.96,3.27-.06,6.51-.12,9.78-.33-.66-.57-1.29-1.11-1.89-1.56-.15-.12-.24-.33-.24-.54,0-.27.12-.54.36-.75.21-.18.48-.3.75-.3.21,0,.45.09.66.24,1.77,1.32,3.45,2.82,5.13,4.5.18.21.27.45.27.69,0,.27-.15.57-.42.81-.24.21-.51.3-.75.3-.27,0-.57-.12-.78-.39-.39-.42-.84-.87-1.32-1.32-5.73.51-12.27.66-18.24.69-.57-.03-.87-.45-.87-1.02v-.15c0-.54.33-.9.81-.9h.06c1.38.03,2.76.03,4.17.03.9-1.23,1.68-2.58,2.34-3.96h-4.5Z"/><polygon points="88.03 58.15 70.03 58.15 70.03 34.44 76.03 34.44 76.03 52.15 88.03 52.15 88.03 58.15"/><path d="M52.6,58.15c-.77,0-1.54-.29-2.12-.88l-12.73-12.73c-1.17-1.17-3.07-1.17-4.24,0l-12.73,12.73c-1.17,1.17-3.07,1.17-4.24,0-1.17-1.17-1.17-3.07,0-4.24l12.73-12.73c3.51-3.51,9.22-3.51,12.73,0l12.73,12.73c1.17,1.17,1.17,3.07,0,4.24-.59.59-1.35.88-2.12.88Z"/><polygon points="4.24 59.4 0 55.15 16.97 38.18 0 21.21 21.21 0 25.46 4.24 8.48 21.21 25.46 38.18 4.24 59.4"/><path d="M62.53,58.15c-1.66,0-3-1.34-3-3v-17.71c0-1.66,1.34-3,3-3s3,1.34,3,3v17.71c0,1.66-1.34,3-3,3Z"/><circle class="cls-1" cx="35.29" cy="54.26" r="4"/></svg>