<?xml version="1.0" encoding="UTF-8"?><svg id="_レイヤー_1" xmlns="http://www.w3.org/2000/svg" viewBox="0 0 266.21 59.37"><defs><style>.cls-1{fill:#ccc;}</style></defs><path d="M104.16,41.57h1.57v13.08h-1.57v-5.92h-6.34v5.92h-1.57v-13.08h1.57v5.74h6.34v-5.74Z"/><path d="M112.64,54.82c-1.41,0-2.53-.48-3.35-1.43-.82-.95-1.23-2.15-1.23-3.6s.42-2.68,1.27-3.66c.85-.98,1.95-1.46,3.31-1.46,1.49,0,2.64.48,3.44,1.44s1.21,2.17,1.21,3.65-.41,2.67-1.24,3.63c-.83.96-1.97,1.44-3.41,1.44ZM112.64,46.03c-.93,0-1.66.36-2.19,1.09s-.8,1.61-.8,2.66.27,1.89.81,2.61c.54.72,1.27,1.08,2.17,1.08.98,0,1.74-.35,2.27-1.06.53-.7.8-1.58.8-2.63s-.25-1.98-.76-2.69-1.27-1.06-2.31-1.06Z"/><path d="M119.55,54.65v-13.64h1.51v13.64h-1.51ZM123.06,49.49l4,5.16h-1.84l-3.96-5.16,3.86-4.68h1.82l-3.88,4.68Z"/><path d="M128.86,54.65v-13.64h1.51v13.64h-1.51ZM132.37,49.49l4,5.16h-1.84l-3.96-5.16,3.86-4.68h1.82l-3.88,4.68Z"/><path d="M138.39,46.87v-1.53c.74-.45,1.71-.68,2.91-.68,2.47,0,3.71,1.25,3.71,3.76v6.23h-1.51v-1.16c-.5.84-1.42,1.26-2.75,1.26-.92,0-1.66-.27-2.22-.81-.56-.54-.84-1.23-.84-2.06,0-.94.36-1.68,1.08-2.2.72-.52,1.7-.79,2.94-.79h1.78v-.5c0-.78-.17-1.36-.52-1.76-.35-.39-.94-.59-1.77-.59-1.05,0-1.98.28-2.79.83ZM143.47,50.11h-1.71c-.83,0-1.45.16-1.86.49s-.62.73-.62,1.22.16.89.48,1.19.8.46,1.42.46c.7,0,1.25-.2,1.67-.59.41-.39.62-.9.62-1.5v-1.26Z"/><path d="M147.84,42.43c-.19-.19-.28-.42-.28-.71s.09-.52.28-.72c.19-.19.42-.29.71-.29s.52.1.72.29c.19.19.29.43.29.72s-.1.52-.29.71c-.19.19-.43.28-.72.28s-.52-.09-.71-.28ZM147.79,54.65v-9.84h1.53v9.84h-1.53Z"/><path d="M158.87,40.93h1.53v13.72h-1.53v-1.46c-.7,1.07-1.71,1.61-3.03,1.61s-2.33-.49-3.08-1.46c-.74-.97-1.12-2.15-1.12-3.53,0-1.54.39-2.78,1.18-3.73.79-.95,1.8-1.43,3.05-1.43s2.28.55,2.99,1.65v-5.37ZM155.98,53.41c.8,0,1.48-.3,2.05-.89s.84-1.55.84-2.85-.29-2.15-.87-2.74-1.22-.87-1.92-.87c-.81,0-1.49.33-2.03.98-.54.65-.8,1.59-.8,2.8,0,1.06.26,1.92.78,2.58.52.66,1.17.99,1.96.99Z"/><path d="M167.23,54.82c-1.41,0-2.53-.48-3.35-1.43-.82-.95-1.23-2.15-1.23-3.6s.42-2.68,1.27-3.66c.85-.98,1.95-1.46,3.31-1.46,1.49,0,2.63.48,3.44,1.44.81.96,1.21,2.17,1.21,3.65s-.41,2.67-1.24,3.63c-.83.96-1.97,1.44-3.41,1.44ZM167.23,46.03c-.93,0-1.66.36-2.19,1.09s-.8,1.61-.8,2.66.27,1.89.82,2.61,1.27,1.08,2.17,1.08c.98,0,1.74-.35,2.27-1.06.53-.7.8-1.58.8-2.63s-.25-1.98-.76-2.69c-.5-.71-1.27-1.06-2.31-1.06Z"/><path d="M186.92,49.72v-8.15h1.57v8.11c0,1.68-.42,2.96-1.27,3.82s-2.03,1.3-3.54,1.3-2.65-.42-3.49-1.27c-.84-.85-1.26-2.08-1.26-3.7v-8.26h1.57v8.25c0,1.2.29,2.09.86,2.66.58.57,1.35.85,2.32.85,2.16,0,3.24-1.2,3.24-3.61Z"/><path d="M192.9,44.81v1.71c.58-1.23,1.62-1.84,3.1-1.84.96,0,1.72.29,2.29.87s.85,1.36.85,2.33v6.77h-1.53v-6.36c0-.72-.18-1.28-.55-1.66-.37-.38-.85-.57-1.45-.57-.74,0-1.38.29-1.91.85-.54.57-.81,1.36-.81,2.37v5.37h-1.51v-9.84h1.51Z"/><path d="M201.99,42.43c-.19-.19-.28-.42-.28-.71s.09-.52.28-.72c.19-.19.42-.29.71-.29s.52.1.72.29c.19.19.29.43.29.72s-.1.52-.29.71c-.19.19-.43.28-.72.28s-.52-.09-.71-.28ZM201.94,54.65v-9.84h1.53v9.84h-1.53Z"/><path d="M208.88,54.65l-3.43-9.84h1.59l1.36,4.15,1.44,4.48c.12-.56.6-2.05,1.46-4.48l1.4-4.15h1.59l-3.51,9.84h-1.88Z"/><path d="M223.36,52.71v1.44c-.76.4-1.69.6-2.79.6-1.49,0-2.69-.46-3.6-1.37-.91-.91-1.37-2.12-1.37-3.62s.41-2.8,1.22-3.71c.81-.91,1.86-1.36,3.14-1.36s2.21.39,2.93,1.18c.72.79,1.09,1.91,1.09,3.36,0,.41-.03.8-.1,1.14h-6.71c.12.97.49,1.71,1.11,2.23.62.52,1.44.78,2.44.78,1.1,0,1.98-.23,2.64-.68ZM222.45,49.1v-.39c0-.81-.22-1.46-.66-1.95-.44-.48-1.05-.73-1.82-.73s-1.37.27-1.88.8c-.52.53-.82,1.29-.91,2.27h5.28Z"/><path d="M227.82,44.81v1.73c.52-1.22,1.41-1.82,2.68-1.82.23,0,.41.01.54.04v1.51c-.27-.09-.55-.14-.83-.14-.69,0-1.25.32-1.71.95-.45.63-.68,1.37-.68,2.19v5.37h-1.53l.02-9.84h1.51Z"/><path d="M237.98,45.14v1.46c-.59-.36-1.41-.54-2.44-.54-.52,0-.93.12-1.23.36-.3.24-.46.55-.46.92,0,.23.04.44.14.61s.27.35.53.51c.27.17.46.28.58.34.12.06.39.18.81.36.83.34,1.47.72,1.94,1.14.47.43.7,1,.7,1.73,0,.84-.29,1.51-.88,2-.59.49-1.39.74-2.42.74-1.19,0-2.15-.2-2.89-.6v-1.49c.87.52,1.8.78,2.79.78.59,0,1.05-.12,1.36-.35.31-.23.46-.55.46-.95,0-.47-.17-.83-.51-1.09s-.92-.55-1.72-.87c-.74-.28-1.33-.64-1.78-1.07s-.67-1-.67-1.73c0-.81.31-1.46.92-1.95.61-.49,1.38-.73,2.3-.73,1.02,0,1.84.14,2.46.43Z"/><path d="M240.75,42.43c-.19-.19-.28-.42-.28-.71s.09-.52.28-.72c.19-.19.42-.29.71-.29s.52.1.72.29.29.43.29.72-.1.52-.29.71c-.19.19-.43.28-.72.28s-.52-.09-.71-.28ZM240.7,54.65v-9.84h1.53v9.84h-1.53Z"/><path d="M247.26,46.05v5.76c0,1.05.49,1.57,1.47,1.57.5,0,.95-.15,1.34-.45v1.45c-.43.23-.91.35-1.44.35-1.94,0-2.91-.99-2.91-2.97v-5.72h-1.57v-1.24h1.57v-2.44h1.53v2.44h2.72v1.24h-2.72Z"/><path d="M255.02,54.39l-3.98-9.58h1.73l1.28,3.24,1.73,4.46c.1-.34.62-1.82,1.55-4.46l1.14-3.24h1.65l-3.55,9.58c-.5,1.33-1.1,2.27-1.79,2.81-.69.54-1.48.81-2.38.81-.34,0-.61-.03-.82-.1v-1.38c.19.05.41.08.66.08,1.31,0,2.23-.74,2.77-2.23Z"/><path d="M48.31,7.23v2.61c-1.25-.82-2.74-1.23-4.48-1.23-1.25,0-2.24.29-2.98.88-.74.58-1.1,1.35-1.1,2.29,0,.49.1.93.29,1.32.19.39.54.75,1.03,1.09.49.34.91.59,1.26.77s.89.42,1.63.75c.7.31,1.23.55,1.6.72.37.17.84.45,1.43.83.58.38,1.02.75,1.32,1.11.3.36.56.83.8,1.41.23.58.35,1.21.35,1.89,0,1.82-.62,3.23-1.87,4.22-1.25.99-2.86,1.49-4.82,1.49-2.17,0-4.01-.44-5.53-1.32v-2.67c1.49,1.12,3.32,1.69,5.46,1.69,1.29,0,2.3-.29,3.04-.86.74-.57,1.11-1.4,1.11-2.49,0-.45-.09-.85-.26-1.21-.17-.36-.46-.69-.86-.98-.4-.3-.78-.54-1.14-.74-.36-.19-.84-.43-1.46-.72-.12-.06-.31-.14-.55-.25-.88-.39-1.55-.71-2.01-.95-.46-.25-1-.61-1.63-1.09-.62-.48-1.08-1.04-1.37-1.67-.29-.63-.43-1.37-.43-2.21,0-1.76.63-3.14,1.89-4.13,1.26-.99,2.84-1.49,4.74-1.49,1.78,0,3.29.32,4.54.95Z"/><path d="M56.78,13.56v9.12c0,1.66.78,2.49,2.33,2.49.8,0,1.5-.24,2.12-.71v2.3c-.68.37-1.43.55-2.27.55-3.07,0-4.6-1.57-4.6-4.7v-9.06h-2.49v-1.96h2.49v-3.87h2.43v3.87h4.3v1.96h-4.3Z"/><path d="M67.16,11.59v2.73c.82-1.92,2.23-2.89,4.24-2.89.37,0,.65.02.86.06v2.4c-.43-.14-.87-.22-1.32-.22-1.08,0-1.99.5-2.7,1.5s-1.07,2.16-1.07,3.47v8.5h-2.43l.03-15.56h2.39Z"/><path d="M84.44,11.59h2.43v15.56h-2.43v-2.7c-.82,1.92-2.45,2.89-4.88,2.89-1.54,0-2.75-.46-3.64-1.37-.89-.91-1.34-2.13-1.34-3.67v-10.71h2.43v10.1c0,1.13.29,1.99.86,2.58.57.59,1.35.89,2.33.89,1.29,0,2.32-.45,3.09-1.35s1.15-2.12,1.15-3.65v-8.57Z"/><path d="M92.95,19.45c.02,1.68.53,3.08,1.54,4.19,1,1.12,2.43,1.67,4.27,1.67,1.19,0,2.29-.34,3.32-1.01v2.3c-.98.59-2.19.89-3.62.89-2.46,0-4.41-.78-5.85-2.35s-2.16-3.47-2.16-5.73.72-4.11,2.16-5.71,3.41-2.39,5.91-2.39c1.33,0,2.52.29,3.56.86v2.3c-.94-.63-2.05-.95-3.32-.95-1.76,0-3.17.57-4.22,1.7s-1.58,2.54-1.58,4.22Z"/><path d="M109.16,13.56v9.12c0,1.66.78,2.49,2.33,2.49.8,0,1.5-.24,2.12-.71v2.3c-.68.37-1.43.55-2.27.55-3.07,0-4.6-1.57-4.6-4.7v-9.06h-2.49v-1.96h2.49v-3.87h2.43v3.87h4.3v1.96h-4.3Z"/><path d="M126.81,11.59h2.43v15.56h-2.43v-2.7c-.82,1.92-2.45,2.89-4.88,2.89-1.54,0-2.75-.46-3.64-1.37-.89-.91-1.34-2.13-1.34-3.67v-10.71h2.43v10.1c0,1.13.29,1.99.86,2.58.57.59,1.35.89,2.33.89,1.29,0,2.32-.45,3.09-1.35s1.15-2.12,1.15-3.65v-8.57Z"/><path d="M135.34,11.59v2.73c.82-1.92,2.23-2.89,4.24-2.89.37,0,.65.02.86.06v2.4c-.43-.14-.87-.22-1.32-.22-1.08,0-1.99.5-2.7,1.5s-1.07,2.16-1.07,3.47v8.5h-2.43l.03-15.56h2.39Z"/><path d="M153.55,24.09v2.27c-1.21.63-2.68.95-4.42.95-2.35,0-4.25-.72-5.69-2.16-1.44-1.44-2.16-3.35-2.16-5.73s.65-4.43,1.93-5.86,2.95-2.15,4.97-2.15,3.49.62,4.64,1.87c1.15,1.25,1.72,3.02,1.72,5.31,0,.66-.05,1.26-.15,1.81h-10.62c.18,1.54.77,2.71,1.75,3.53.98.82,2.27,1.23,3.87,1.23,1.74,0,3.13-.36,4.17-1.07ZM152.11,18.38v-.61c0-1.29-.35-2.32-1.04-3.09-.7-.77-1.66-1.15-2.89-1.15s-2.16.42-2.98,1.26c-.82.84-1.3,2.04-1.44,3.59h8.35Z"/><path d="M167.95,5.45h2.42v21.71h-2.42v-2.3c-1.11,1.7-2.7,2.55-4.79,2.55s-3.69-.77-4.87-2.3c-1.18-1.54-1.77-3.4-1.77-5.59,0-2.43.62-4.41,1.87-5.91,1.25-1.5,2.85-2.26,4.82-2.26s3.6.87,4.73,2.61V5.45ZM163.37,25.19c1.27,0,2.35-.47,3.24-1.41s1.34-2.45,1.34-4.51-.46-3.41-1.38-4.33c-.92-.92-1.93-1.38-3.04-1.38-1.29,0-2.36.52-3.21,1.55-.85,1.03-1.27,2.51-1.27,4.44,0,1.68.41,3.04,1.23,4.08s1.85,1.57,3.1,1.57Z"/><path d="M196.25,27.16l-1.81-5.43h-8.75l-1.84,5.43h-2.67l7.21-20.69h3.44l7.09,20.69h-2.67ZM186.4,19.6h7.34l-.4-1.2-3.22-9.95c-.25.88-1.35,4.21-3.32,9.98l-.4,1.17Z"/><path d="M202.24,27.16V6.46h2.49v20.69h-2.49Z"/><path d="M220.38,24.92h8.81v2.24h-11.3V6.46h2.49v18.45Z"/><path d="M232.45,14.85v-2.42c1.17-.72,2.7-1.08,4.6-1.08,3.91,0,5.86,1.99,5.86,5.96v9.85h-2.39v-1.84c-.8,1.33-2.25,2-4.36,2-1.45,0-2.62-.43-3.52-1.29-.89-.86-1.33-1.94-1.33-3.25,0-1.49.57-2.66,1.7-3.48,1.14-.83,2.69-1.24,4.65-1.24h2.82v-.8c0-1.23-.28-2.15-.83-2.78-.55-.62-1.48-.94-2.79-.94-1.66,0-3.13.44-4.42,1.32ZM240.49,19.97h-2.7c-1.31,0-2.29.26-2.95.77-.66.51-.98,1.16-.98,1.93s.26,1.41.77,1.89c.51.48,1.26.72,2.24.72,1.11,0,1.98-.31,2.64-.94s.98-1.42.98-2.38v-2Z"/><path d="M249.42,5.45v8.47c1.12-1.72,2.7-2.58,4.73-2.58s3.57.75,4.82,2.26c1.25,1.5,1.87,3.47,1.87,5.91,0,2.19-.59,4.05-1.76,5.59-1.18,1.54-2.8,2.3-4.87,2.3s-3.68-.85-4.79-2.55v2.3h-2.43V5.45h2.43ZM254,25.19c1.25,0,2.28-.52,3.1-1.57s1.23-2.4,1.23-4.08c0-1.92-.43-3.4-1.27-4.44-.85-1.03-1.92-1.55-3.21-1.55-1.11,0-2.12.46-3.04,1.38-.92.92-1.38,2.36-1.38,4.33,0,2.07.45,3.57,1.33,4.51.89.94,1.97,1.41,3.24,1.41Z"/><path d="M263.11,26.88c-.35-.35-.52-.78-.52-1.29s.17-.94.52-1.29.78-.52,1.29-.52.94.17,1.29.52c.35.35.52.78.52,1.29s-.17.94-.52,1.29c-.35.35-.78.52-1.29.52s-.94-.17-1.29-.52Z"/><path d="M87.99,58.14h-17.94s-.03-.01-.03-.03v-23.65s.01-.03.03-.03h5.94s.03.01.03.03v17.65s.01.03.03.03h11.94s.03.01.03.03v5.94s-.01.03-.03.03Z"/><path d="M52.59,58.14c-.77,0-1.54-.29-2.12-.88l-12.73-12.73c-1.17-1.17-3.07-1.17-4.24,0l-12.65,12.65c-.93.93-2.38,1.26-3.55.65-1.9-1.01-2.16-3.42-.77-4.81l12.73-12.73c3.51-3.51,9.22-3.51,12.73,0l12.6,12.6c1.14,1.14,1.33,3.01.27,4.22-.6.69-1.43,1.03-2.26,1.03Z"/><path d="M4.21,59.36L0,55.16s-.01-.03,0-.04l16.93-16.93s.01-.03,0-.04L0,21.22s-.01-.03,0-.04L21.18,0s.03-.01.04,0l4.2,4.2s.01.03,0,.04L8.49,21.18s-.01.03,0,.04l16.93,16.93s.01.03,0,.04L4.25,59.36s-.03.01-.04,0Z"/><path d="M62.38,58.14c-1.64-.07-2.87-1.55-2.87-3.19v-17.32c0-1.64,1.23-3.12,2.87-3.19,1.72-.08,3.13,1.3,3.13,3v17.71c0,1.7-1.42,3.07-3.13,3Z"/><circle class="cls-1" cx="35.27" cy="54.25" r="4"/></svg>