<?xml version="1.0" encoding="UTF-8"?><svg id="logo" xmlns="http://www.w3.org/2000/svg" viewBox="0 0 456.14 59.37"><defs><style>.cls-1{fill:#ccc;}</style></defs><path d="M101.37,31.53h-4.28v3.54h3.76v1.05h-3.76v4.34h-1.2v-9.98h5.48v1.05Z"/><path d="M103.38,34.52v-1.17c.56-.34,1.3-.52,2.22-.52,1.88,0,2.83.96,2.83,2.87v4.75h-1.15v-.89c-.38.64-1.09.96-2.1.96-.7,0-1.27-.21-1.69-.62s-.64-.94-.64-1.57c0-.72.27-1.28.82-1.68.55-.4,1.29-.6,2.24-.6h1.36v-.38c0-.59-.13-1.04-.4-1.34s-.72-.45-1.35-.45c-.8,0-1.51.21-2.13.64ZM107.26,36.99h-1.3c-.63,0-1.1.12-1.42.37-.32.25-.47.56-.47.93s.12.68.37.91c.25.23.61.35,1.08.35.53,0,.96-.15,1.27-.45.32-.3.47-.68.47-1.15v-.96Z"/><path d="M111.42,36.74c0,.81.26,1.48.74,2.02.48.54,1.17.81,2.06.81.57,0,1.1-.16,1.6-.49v1.11c-.47.29-1.06.43-1.75.43-1.18,0-2.12-.38-2.82-1.13-.7-.75-1.04-1.67-1.04-2.76s.35-1.98,1.04-2.75c.7-.77,1.65-1.15,2.85-1.15.64,0,1.21.14,1.72.41v1.11c-.45-.31-.99-.46-1.6-.46-.85,0-1.53.27-2.03.82-.51.55-.76,1.23-.76,2.04Z"/><path d="M122.43,32.95h1.17v7.5h-1.17v-1.3c-.39.93-1.18,1.39-2.35,1.39-.74,0-1.32-.22-1.75-.66-.43-.44-.64-1.03-.64-1.77v-5.17h1.17v4.87c0,.54.14.96.41,1.24.28.29.65.43,1.12.43.62,0,1.12-.22,1.49-.65s.55-1.02.55-1.76v-4.13Z"/><path d="M125.97,40.45v-10.46h1.17v10.46h-1.17Z"/><path d="M131.12,33.89v4.4c0,.8.38,1.2,1.12,1.2.38,0,.73-.11,1.02-.34v1.11c-.33.18-.69.27-1.1.27-1.48,0-2.22-.75-2.22-2.26v-4.37h-1.2v-.95h1.2v-1.86h1.17v1.86h2.07v.95h-2.07Z"/><path d="M137.19,40.26l-3.03-7.31h1.32l.98,2.47,1.32,3.4c.08-.26.47-1.39,1.18-3.4l.87-2.47h1.26l-2.71,7.31c-.38,1.02-.84,1.73-1.37,2.15-.53.42-1.13.62-1.81.62-.26,0-.46-.03-.62-.07v-1.05c.15.04.32.06.5.06,1,0,1.7-.57,2.12-1.7Z"/><path d="M149.37,40.58c-1.08,0-1.93-.36-2.55-1.09-.63-.72-.94-1.64-.94-2.75s.32-2.04.97-2.79c.65-.75,1.49-1.12,2.52-1.12,1.13,0,2.01.37,2.63,1.09.62.73.92,1.66.92,2.78s-.32,2.04-.95,2.77c-.63.73-1.5,1.09-2.6,1.09ZM149.37,33.88c-.71,0-1.27.28-1.67.83-.4.55-.61,1.23-.61,2.03s.21,1.44.62,1.99.97.82,1.66.82c.75,0,1.33-.27,1.73-.81.4-.54.61-1.21.61-2s-.19-1.51-.58-2.05c-.39-.54-.97-.81-1.76-.81Z"/><path d="M158.36,29.99v1.07c-.24-.08-.46-.12-.68-.12-.32,0-.57.11-.78.33-.2.22-.3.55-.3,1.01v.68h1.66v.95h-1.66v6.56h-1.17v-6.56h-1.29v-.95h1.29v-.7c0-.73.19-1.31.58-1.73.39-.42.93-.64,1.62-.64.24,0,.48.03.73.1Z"/><path d="M163.71,40.45v-9.98h1.2v9.98h-1.2Z"/><path d="M168.52,32.95v1.3c.44-.94,1.23-1.41,2.37-1.41.73,0,1.31.22,1.75.67s.65,1.04.65,1.78v5.17h-1.17v-4.85c0-.55-.14-.97-.42-1.27-.28-.29-.65-.44-1.1-.44-.56,0-1.05.22-1.46.65-.41.43-.61,1.04-.61,1.81v4.1h-1.15v-7.5h1.15Z"/><path d="M179.08,29.99v1.07c-.24-.08-.46-.12-.68-.12-.32,0-.57.11-.78.33-.2.22-.3.55-.3,1.01v.68h1.66v.95h-1.66v6.56h-1.17v-6.56h-1.29v-.95h1.29v-.7c0-.73.19-1.31.58-1.73.39-.42.93-.64,1.62-.64.24,0,.48.03.73.1Z"/><path d="M183.57,40.58c-1.08,0-1.93-.36-2.55-1.09-.63-.72-.94-1.64-.94-2.75s.32-2.04.97-2.79c.65-.75,1.49-1.12,2.52-1.12,1.13,0,2.01.37,2.63,1.09.62.73.92,1.66.92,2.78s-.32,2.04-.95,2.77c-.63.73-1.5,1.09-2.6,1.09ZM183.57,33.88c-.71,0-1.27.28-1.67.83-.4.55-.61,1.23-.61,2.03s.21,1.44.62,1.99.97.82,1.66.82c.75,0,1.33-.27,1.73-.81.4-.54.61-1.21.61-2s-.19-1.51-.58-2.05c-.39-.54-.97-.81-1.76-.81Z"/><path d="M190.14,32.95v1.32c.39-.93,1.08-1.39,2.04-1.39.18,0,.32,0,.41.03v1.15c-.21-.07-.42-.1-.64-.1-.52,0-.96.24-1.3.72-.35.48-.52,1.04-.52,1.67v4.1h-1.17l.02-7.5h1.15Z"/><path d="M195.11,32.95v1.21c.41-.88,1.12-1.32,2.12-1.32,1.15,0,1.88.49,2.19,1.46.22-.47.52-.84.91-1.09.39-.25.83-.38,1.31-.38.78,0,1.37.22,1.76.67.39.44.59,1.04.59,1.79v5.15h-1.17v-4.85c0-1.13-.48-1.7-1.44-1.7-.47,0-.9.21-1.27.64-.38.43-.56,1.03-.56,1.81v4.1h-1.17v-4.85c0-1.13-.48-1.7-1.44-1.7-.47,0-.9.21-1.27.64-.38.43-.56,1.03-.56,1.81v4.1h-1.15v-7.5h1.15Z"/><path d="M206.37,34.52v-1.17c.56-.34,1.3-.52,2.22-.52,1.88,0,2.83.96,2.83,2.87v4.75h-1.15v-.89c-.38.64-1.09.96-2.1.96-.7,0-1.27-.21-1.69-.62s-.64-.94-.64-1.57c0-.72.27-1.28.82-1.68.55-.4,1.29-.6,2.24-.6h1.36v-.38c0-.59-.13-1.04-.4-1.34s-.72-.45-1.35-.45c-.8,0-1.51.21-2.13.64ZM210.25,36.99h-1.3c-.63,0-1.1.12-1.42.37-.32.25-.47.56-.47.93s.12.68.37.91c.25.23.61.35,1.08.35.53,0,.96-.15,1.27-.45.32-.3.47-.68.47-1.15v-.96Z"/><path d="M215.25,33.89v4.4c0,.8.38,1.2,1.12,1.2.38,0,.73-.11,1.02-.34v1.11c-.33.18-.69.27-1.1.27-1.48,0-2.22-.75-2.22-2.26v-4.37h-1.2v-.95h1.2v-1.86h1.17v1.86h2.07v.95h-2.07Z"/><path d="M219.35,31.13c-.14-.14-.21-.32-.21-.54s.07-.4.21-.55c.14-.15.32-.22.54-.22s.4.07.55.22c.15.15.22.33.22.55s-.07.4-.22.54c-.15.14-.33.21-.55.21s-.4-.07-.54-.21ZM219.31,40.45v-7.5h1.17v7.5h-1.17Z"/><path d="M225.89,40.58c-1.08,0-1.93-.36-2.55-1.09-.63-.72-.94-1.64-.94-2.75s.32-2.04.97-2.79c.65-.75,1.49-1.12,2.52-1.12,1.13,0,2.01.37,2.63,1.09.62.73.92,1.66.92,2.78s-.32,2.04-.95,2.77c-.63.73-1.5,1.09-2.6,1.09ZM225.89,33.88c-.71,0-1.27.28-1.67.83-.4.55-.61,1.23-.61,2.03s.21,1.44.62,1.99.97.82,1.66.82c.75,0,1.33-.27,1.73-.81.4-.54.61-1.21.61-2s-.19-1.51-.58-2.05c-.39-.54-.97-.81-1.76-.81Z"/><path d="M232.47,32.95v1.3c.44-.94,1.23-1.41,2.37-1.41.73,0,1.31.22,1.75.67.43.44.65,1.04.65,1.78v5.17h-1.17v-4.85c0-.55-.14-.97-.42-1.27-.28-.29-.65-.44-1.1-.44-.56,0-1.05.22-1.46.65-.41.43-.61,1.04-.61,1.81v4.1h-1.15v-7.5h1.15Z"/><path d="M248.49,30.85v1.26c-.6-.39-1.32-.59-2.16-.59-.6,0-1.08.14-1.44.42-.36.28-.53.65-.53,1.1,0,.24.05.45.14.64s.26.36.5.53c.24.16.44.29.61.37s.43.2.78.36c.34.15.59.26.77.35.18.08.41.22.69.4s.49.36.64.53c.14.17.27.4.38.68s.17.58.17.91c0,.88-.3,1.56-.9,2.04-.6.48-1.38.72-2.32.72-1.05,0-1.93-.21-2.66-.64v-1.29c.72.54,1.6.81,2.63.81.62,0,1.11-.14,1.46-.41.36-.28.53-.68.53-1.2,0-.22-.04-.41-.13-.58s-.22-.33-.41-.47c-.19-.14-.38-.26-.55-.36s-.41-.21-.7-.35c-.06-.03-.15-.07-.27-.12-.42-.19-.75-.34-.97-.46-.22-.12-.48-.29-.78-.53-.3-.23-.52-.5-.66-.81-.14-.31-.21-.66-.21-1.07,0-.85.3-1.51.91-1.99s1.37-.72,2.29-.72c.86,0,1.59.15,2.19.46Z"/><path d="M251.88,36.74c0,.81.26,1.48.74,2.02.48.54,1.17.81,2.06.81.57,0,1.1-.16,1.6-.49v1.11c-.47.29-1.06.43-1.75.43-1.18,0-2.12-.38-2.82-1.13-.7-.75-1.04-1.67-1.04-2.76s.35-1.98,1.04-2.75c.7-.77,1.65-1.15,2.85-1.15.64,0,1.21.14,1.72.41v1.11c-.45-.31-.99-.46-1.6-.46-.85,0-1.53.27-2.04.82s-.76,1.23-.76,2.04Z"/><path d="M258.33,31.13c-.14-.14-.21-.32-.21-.54s.07-.4.21-.55.32-.22.54-.22.4.07.55.22.22.33.22.55-.07.4-.22.54c-.15.14-.33.21-.55.21s-.4-.07-.54-.21ZM258.29,40.45v-7.5h1.17v7.5h-1.17Z"/><path d="M267.3,38.97v1.1c-.58.31-1.29.46-2.13.46-1.13,0-2.05-.35-2.75-1.04s-1.04-1.62-1.04-2.76.31-2.14.93-2.83c.62-.69,1.42-1.04,2.4-1.04s1.68.3,2.24.9c.55.6.83,1.46.83,2.56,0,.32-.02.61-.07.87h-5.12c.09.74.37,1.31.84,1.7.47.4,1.09.59,1.86.59.84,0,1.51-.17,2.01-.52ZM266.61,36.22v-.3c0-.62-.17-1.12-.5-1.49-.34-.37-.8-.55-1.39-.55s-1.04.2-1.44.61c-.39.41-.63.98-.7,1.73h4.03Z"/><path d="M270.86,32.95v1.3c.44-.94,1.23-1.41,2.37-1.41.73,0,1.31.22,1.75.67.43.44.65,1.04.65,1.78v5.17h-1.17v-4.85c0-.55-.14-.97-.42-1.27-.28-.29-.65-.44-1.1-.44-.56,0-1.05.22-1.46.65-.41.43-.61,1.04-.61,1.81v4.1h-1.15v-7.5h1.15Z"/><path d="M278.61,36.74c0,.81.26,1.48.74,2.02.48.54,1.17.81,2.06.81.57,0,1.1-.16,1.6-.49v1.11c-.47.29-1.06.43-1.75.43-1.18,0-2.12-.38-2.82-1.13-.7-.75-1.04-1.67-1.04-2.76s.35-1.98,1.04-2.75c.7-.77,1.65-1.15,2.85-1.15.64,0,1.21.14,1.72.41v1.11c-.45-.31-.99-.46-1.6-.46-.85,0-1.53.27-2.04.82s-.76,1.23-.76,2.04Z"/><path d="M290.44,38.97v1.1c-.58.31-1.29.46-2.13.46-1.13,0-2.05-.35-2.75-1.04s-1.04-1.62-1.04-2.76.31-2.14.93-2.83c.62-.69,1.42-1.04,2.4-1.04s1.68.3,2.24.9c.55.6.83,1.46.83,2.56,0,.32-.02.61-.07.87h-5.12c.09.74.37,1.31.84,1.7.47.4,1.09.59,1.86.59.84,0,1.51-.17,2.01-.52ZM289.74,36.22v-.3c0-.62-.17-1.12-.5-1.49-.34-.37-.8-.55-1.39-.55s-1.04.2-1.44.61c-.39.41-.63.98-.7,1.73h4.03Z"/><path d="M296.75,34.52v-1.17c.56-.34,1.3-.52,2.22-.52,1.88,0,2.83.96,2.83,2.87v4.75h-1.15v-.89c-.38.64-1.08.96-2.1.96-.7,0-1.27-.21-1.69-.62-.43-.41-.64-.94-.64-1.57,0-.72.27-1.28.82-1.68.55-.4,1.29-.6,2.24-.6h1.36v-.38c0-.59-.13-1.04-.4-1.34s-.72-.45-1.35-.45c-.8,0-1.51.21-2.13.64ZM300.63,36.99h-1.3c-.63,0-1.1.12-1.42.37-.32.25-.47.56-.47.93s.12.68.37.91c.25.23.61.35,1.08.35.53,0,.96-.15,1.27-.45s.47-.68.47-1.15v-.96Z"/><path d="M305.17,32.95v1.3c.44-.94,1.23-1.41,2.37-1.41.73,0,1.31.22,1.75.67.43.44.65,1.04.65,1.78v5.17h-1.17v-4.85c0-.55-.14-.97-.42-1.27s-.65-.44-1.1-.44c-.56,0-1.05.22-1.46.65s-.61,1.04-.61,1.81v4.1h-1.15v-7.5h1.15Z"/><path d="M317.22,29.99h1.17v10.46h-1.17v-1.11c-.53.82-1.3,1.23-2.31,1.23s-1.78-.37-2.35-1.11c-.57-.74-.85-1.64-.85-2.69,0-1.17.3-2.12.9-2.85.6-.73,1.38-1.09,2.32-1.09s1.74.42,2.28,1.26v-4.1ZM315.02,39.5c.61,0,1.13-.23,1.56-.68.43-.45.64-1.18.64-2.18s-.22-1.64-.67-2.09c-.44-.44-.93-.67-1.46-.67-.62,0-1.14.25-1.55.75-.41.5-.61,1.21-.61,2.14,0,.81.2,1.47.59,1.97s.89.75,1.5.75Z"/><path d="M330.23,30.48v1.05h-2.69v8.92h-1.2v-8.92h-2.69v-1.05h6.59Z"/><path d="M337.22,38.97v1.1c-.58.31-1.29.46-2.13.46-1.13,0-2.05-.35-2.75-1.04s-1.04-1.62-1.04-2.76.31-2.14.93-2.83c.62-.69,1.42-1.04,2.4-1.04s1.68.3,2.24.9c.55.6.83,1.46.83,2.56,0,.32-.02.61-.07.87h-5.12c.09.74.37,1.31.84,1.7.47.4,1.09.59,1.86.59.84,0,1.51-.17,2.01-.52ZM336.52,36.22v-.3c0-.62-.17-1.12-.5-1.49-.34-.37-.8-.55-1.39-.55s-1.04.2-1.44.61c-.39.41-.63.98-.7,1.73h4.03Z"/><path d="M340.38,36.74c0,.81.26,1.48.74,2.02.48.54,1.17.81,2.06.81.57,0,1.1-.16,1.6-.49v1.11c-.47.29-1.06.43-1.75.43-1.18,0-2.12-.38-2.82-1.13-.7-.75-1.04-1.67-1.04-2.76s.35-1.98,1.04-2.75c.7-.77,1.65-1.15,2.85-1.15.64,0,1.21.14,1.72.41v1.11c-.45-.31-.99-.46-1.6-.46-.85,0-1.53.27-2.04.82s-.76,1.23-.76,2.04Z"/><path d="M347.89,29.99v4.26c.44-.94,1.23-1.41,2.37-1.41.72,0,1.3.22,1.74.67.44.44.66,1.05.66,1.81v5.14h-1.17v-4.85c0-.54-.14-.96-.42-1.26s-.65-.44-1.1-.44c-.55,0-1.04.21-1.45.64-.42.42-.62,1.03-.62,1.82v4.1h-1.15v-10.46h1.15Z"/><path d="M356.03,32.95v1.3c.44-.94,1.23-1.41,2.37-1.41.73,0,1.31.22,1.75.67.43.44.65,1.04.65,1.78v5.17h-1.17v-4.85c0-.55-.14-.97-.42-1.27s-.65-.44-1.1-.44c-.56,0-1.05.22-1.46.65s-.61,1.04-.61,1.81v4.1h-1.15v-7.5h1.15Z"/><path d="M366.06,40.58c-1.08,0-1.93-.36-2.55-1.09-.63-.72-.94-1.64-.94-2.75s.32-2.04.97-2.79,1.49-1.12,2.52-1.12c1.13,0,2.01.37,2.63,1.09.62.73.92,1.66.92,2.78s-.32,2.04-.95,2.77c-.63.73-1.5,1.09-2.6,1.09ZM366.06,33.88c-.71,0-1.27.28-1.67.83-.41.55-.61,1.23-.61,2.03s.21,1.44.62,1.99c.41.55.97.82,1.66.82.75,0,1.33-.27,1.73-.81.4-.54.61-1.21.61-2s-.19-1.51-.58-2.05c-.39-.54-.97-.81-1.76-.81Z"/><path d="M371.54,40.45v-10.46h1.17v10.46h-1.17Z"/><path d="M378.12,40.58c-1.08,0-1.93-.36-2.55-1.09-.63-.72-.94-1.64-.94-2.75s.32-2.04.97-2.79,1.49-1.12,2.52-1.12c1.13,0,2.01.37,2.63,1.09.62.73.92,1.66.92,2.78s-.32,2.04-.95,2.77c-.63.73-1.5,1.09-2.6,1.09ZM378.12,33.88c-.71,0-1.27.28-1.67.83-.41.55-.61,1.23-.61,2.03s.21,1.44.62,1.99c.41.55.97.82,1.66.82.75,0,1.33-.27,1.73-.81.4-.54.61-1.21.61-2s-.19-1.51-.58-2.05c-.39-.54-.97-.81-1.76-.81Z"/><path d="M388.42,32.95h1.17v6.9c0,1.14-.32,2.01-.95,2.58s-1.45.87-2.44.87c-.91,0-1.68-.15-2.32-.46v-1.17c.63.37,1.37.55,2.22.55.72,0,1.29-.19,1.7-.58.42-.38.62-.99.62-1.81v-.84c-.49.85-1.23,1.27-2.21,1.27-.86,0-1.59-.32-2.2-.95s-.91-1.51-.91-2.63.28-2.03.84-2.75c.56-.72,1.3-1.08,2.21-1.08,1.03,0,1.78.45,2.26,1.35v-1.24ZM386.35,39.22c.54,0,1.02-.21,1.44-.63.42-.42.63-1.04.63-1.87,0-.96-.2-1.67-.61-2.13-.4-.46-.87-.7-1.41-.7-.64,0-1.15.25-1.52.76-.38.51-.56,1.17-.56,1.99s.21,1.48.62,1.92c.42.44.88.66,1.41.66Z"/><path d="M394.11,40.26l-3.03-7.31h1.32l.98,2.47,1.32,3.4c.08-.26.47-1.39,1.18-3.4l.87-2.47h1.26l-2.71,7.31c-.38,1.02-.84,1.73-1.37,2.15-.53.42-1.13.62-1.81.62-.26,0-.46-.03-.62-.07v-1.05c.15.04.32.06.5.06,1,0,1.7-.57,2.12-1.7Z"/><path d="M398.28,42.27l1.38-3.32h1.55l-1.91,3.32h-1.02Z"/><path d="M101.93,45.48h1.2v9.98h-1.2v-4.51h-4.84v4.51h-1.2v-9.98h1.2v4.38h4.84v-4.38Z"/><path d="M108.55,55.58c-1.08,0-1.93-.36-2.55-1.09-.63-.72-.94-1.64-.94-2.75s.32-2.04.97-2.79c.65-.75,1.49-1.12,2.52-1.12,1.13,0,2.01.37,2.63,1.09.62.73.92,1.66.92,2.78s-.32,2.04-.95,2.77c-.63.73-1.5,1.09-2.6,1.09ZM108.55,48.88c-.71,0-1.27.28-1.67.83-.4.55-.61,1.23-.61,2.03s.21,1.44.62,1.99.97.82,1.66.82c.75,0,1.33-.27,1.73-.81.4-.54.61-1.21.61-2s-.19-1.51-.58-2.05c-.39-.54-.97-.81-1.76-.81Z"/><path d="M113.97,55.45v-10.4h1.15v10.4h-1.15ZM116.64,51.51l3.05,3.94h-1.41l-3.02-3.94,2.95-3.57h1.39l-2.96,3.57Z"/><path d="M121.22,55.45v-10.4h1.15v10.4h-1.15ZM123.9,51.51l3.05,3.94h-1.41l-3.02-3.94,2.95-3.57h1.39l-2.96,3.57Z"/><path d="M128.63,49.52v-1.17c.56-.34,1.3-.52,2.22-.52,1.88,0,2.83.96,2.83,2.87v4.75h-1.15v-.89c-.38.64-1.09.96-2.1.96-.7,0-1.27-.21-1.69-.62s-.64-.94-.64-1.57c0-.72.27-1.28.82-1.68.55-.4,1.29-.6,2.24-.6h1.36v-.38c0-.59-.13-1.04-.4-1.34s-.72-.45-1.35-.45c-.8,0-1.51.21-2.13.64ZM132.51,51.99h-1.3c-.63,0-1.1.12-1.42.37-.32.25-.47.56-.47.93s.12.68.37.91c.25.23.61.35,1.08.35.53,0,.96-.15,1.27-.45.32-.3.47-.68.47-1.15v-.96Z"/><path d="M135.99,46.13c-.14-.14-.21-.32-.21-.54s.07-.4.21-.55c.14-.15.32-.22.54-.22s.4.07.55.22c.15.15.22.33.22.55s-.07.4-.22.54c-.15.14-.33.21-.55.21s-.4-.07-.54-.21ZM135.96,55.45v-7.5h1.17v7.5h-1.17Z"/><path d="M144.56,44.99h1.17v10.46h-1.17v-1.11c-.53.82-1.3,1.23-2.31,1.23s-1.78-.37-2.35-1.11c-.57-.74-.85-1.64-.85-2.69,0-1.17.3-2.12.9-2.85.6-.73,1.38-1.09,2.32-1.09s1.74.42,2.28,1.26v-4.1ZM142.35,54.5c.61,0,1.13-.23,1.56-.68s.64-1.18.64-2.18-.22-1.64-.67-2.09-.93-.67-1.47-.67c-.62,0-1.14.25-1.55.75-.41.5-.61,1.21-.61,2.14,0,.81.2,1.47.59,1.97s.89.75,1.5.75Z"/><path d="M151.08,55.58c-1.08,0-1.93-.36-2.55-1.09-.63-.72-.94-1.64-.94-2.75s.32-2.04.97-2.79c.65-.75,1.49-1.12,2.52-1.12,1.13,0,2.01.37,2.63,1.09.62.73.92,1.66.92,2.78s-.32,2.04-.95,2.77c-.63.73-1.5,1.09-2.6,1.09ZM151.08,48.88c-.71,0-1.27.28-1.67.83-.4.55-.61,1.23-.61,2.03s.21,1.44.62,1.99.97.82,1.66.82c.75,0,1.33-.27,1.73-.81.4-.54.61-1.21.61-2s-.19-1.51-.58-2.05c-.39-.54-.97-.81-1.76-.81Z"/><path d="M166.4,51.69v-6.22h1.2v6.19c0,1.28-.32,2.25-.97,2.92-.65.66-1.55.99-2.7.99s-2.02-.32-2.66-.97c-.64-.65-.96-1.59-.96-2.82v-6.3h1.2v6.29c0,.92.22,1.59.66,2.03.44.43,1.03.65,1.77.65,1.65,0,2.47-.92,2.47-2.75Z"/><path d="M171.11,47.95v1.3c.44-.94,1.23-1.41,2.37-1.41.73,0,1.31.22,1.75.67s.65,1.04.65,1.78v5.17h-1.17v-4.85c0-.55-.14-.97-.42-1.27-.28-.29-.65-.44-1.1-.44-.56,0-1.05.22-1.46.65-.41.43-.61,1.04-.61,1.81v4.1h-1.15v-7.5h1.15Z"/><path d="M178.19,46.13c-.14-.14-.21-.32-.21-.54s.07-.4.21-.55c.14-.15.32-.22.54-.22s.4.07.55.22c.15.15.22.33.22.55s-.07.4-.22.54c-.15.14-.33.21-.55.21s-.4-.07-.54-.21ZM178.15,55.45v-7.5h1.17v7.5h-1.17Z"/><path d="M183.6,55.45l-2.62-7.5h1.21l1.04,3.17,1.1,3.42c.09-.42.46-1.56,1.11-3.42l1.07-3.17h1.21l-2.68,7.5h-1.44Z"/><path d="M194.79,53.97v1.1c-.58.31-1.29.46-2.13.46-1.13,0-2.05-.35-2.75-1.04-.7-.7-1.04-1.62-1.04-2.76s.31-2.14.93-2.83,1.42-1.04,2.4-1.04,1.68.3,2.23.9c.55.6.83,1.46.83,2.56,0,.32-.02.61-.07.87h-5.12c.09.74.37,1.31.84,1.7.47.4,1.1.59,1.86.59.84,0,1.51-.17,2.01-.52ZM194.09,51.22v-.3c0-.62-.17-1.12-.5-1.49s-.8-.55-1.39-.55-1.04.2-1.44.61c-.39.41-.63.98-.7,1.73h4.03Z"/><path d="M198.34,47.95v1.32c.39-.93,1.08-1.39,2.04-1.39.18,0,.32,0,.41.03v1.15c-.21-.07-.42-.1-.64-.1-.52,0-.96.24-1.3.72-.35.48-.52,1.04-.52,1.67v4.1h-1.17l.02-7.5h1.15Z"/><path d="M206.24,48.2v1.11c-.45-.28-1.08-.41-1.86-.41-.39,0-.71.09-.94.27-.23.18-.35.42-.35.7,0,.18.03.33.1.47.07.13.21.26.41.39.2.13.35.21.44.26.09.04.3.14.61.27.63.26,1.12.55,1.48.87.36.33.53.76.53,1.32,0,.64-.22,1.15-.67,1.52-.45.38-1.06.56-1.84.56-.91,0-1.64-.15-2.21-.46v-1.14c.66.39,1.37.59,2.13.59.45,0,.8-.09,1.04-.27s.35-.42.35-.72c0-.36-.13-.63-.39-.83-.26-.2-.7-.42-1.31-.67-.56-.22-1.01-.49-1.35-.81-.34-.33-.51-.76-.51-1.32,0-.62.23-1.12.7-1.49.47-.37,1.05-.56,1.75-.56.78,0,1.41.11,1.88.33Z"/><path d="M208.5,46.13c-.14-.14-.21-.32-.21-.54s.07-.4.21-.55c.14-.15.32-.22.54-.22s.4.07.55.22c.15.15.22.33.22.55s-.07.4-.22.54c-.15.14-.33.21-.55.21s-.4-.07-.54-.21ZM208.46,55.45v-7.5h1.17v7.5h-1.17Z"/><path d="M213.61,48.89v4.4c0,.8.38,1.2,1.12,1.2.38,0,.73-.11,1.02-.34v1.11c-.33.18-.69.27-1.1.27-1.48,0-2.22-.75-2.22-2.26v-4.37h-1.2v-.95h1.2v-1.86h1.17v1.86h2.07v.95h-2.07Z"/><path d="M219.68,55.26l-3.03-7.31h1.32l.98,2.47,1.32,3.4c.08-.26.47-1.39,1.18-3.4l.87-2.47h1.26l-2.71,7.31c-.38,1.02-.84,1.73-1.37,2.15-.53.42-1.13.62-1.81.62-.26,0-.46-.03-.62-.07v-1.05c.15.04.32.06.5.06,1,0,1.7-.57,2.12-1.7Z"/><path d="M47.15,3.77v2.38c-1.14-.75-2.5-1.12-4.09-1.12-1.14,0-2.04.27-2.72.8-.67.53-1.01,1.23-1.01,2.09,0,.45.09.85.27,1.2.18.35.49.69.94.99.45.31.83.54,1.15.7.32.16.81.39,1.48.69.63.28,1.12.5,1.46.66.34.16.77.41,1.3.76.53.35.93.68,1.2,1.01.27.33.51.76.73,1.29.21.53.32,1.11.32,1.72,0,1.66-.57,2.94-1.71,3.85-1.14.91-2.6,1.36-4.4,1.36-1.98,0-3.66-.4-5.04-1.2v-2.44c1.36,1.03,3.02,1.54,4.98,1.54,1.18,0,2.1-.26,2.77-.78.67-.52,1.01-1.28,1.01-2.27,0-.41-.08-.78-.24-1.11-.16-.33-.42-.62-.78-.9-.36-.27-.71-.49-1.04-.67-.33-.18-.77-.4-1.33-.66-.11-.06-.28-.13-.5-.22-.8-.35-1.41-.64-1.83-.87-.42-.22-.92-.56-1.48-.99-.57-.44-.98-.95-1.25-1.53-.26-.58-.39-1.25-.39-2.02,0-1.6.57-2.86,1.72-3.77,1.15-.91,2.59-1.36,4.33-1.36,1.62,0,3.01.29,4.14.87Z"/><path d="M54.88,9.53v8.32c0,1.51.71,2.27,2.13,2.27.73,0,1.37-.21,1.93-.64v2.1c-.62.34-1.31.5-2.07.5-2.8,0-4.2-1.43-4.2-4.28v-8.26h-2.27v-1.79h2.27v-3.53h2.21v3.53h3.92v1.79h-3.92Z"/><path d="M64.34,7.74v2.49c.75-1.75,2.03-2.63,3.86-2.63.34,0,.6.02.78.06v2.18c-.39-.13-.79-.2-1.2-.2-.99,0-1.81.46-2.46,1.37-.65.91-.98,1.97-.98,3.16v7.76h-2.21l.03-14.2h2.18Z"/><path d="M80.11,7.74h2.21v14.2h-2.21v-2.46c-.75,1.75-2.23,2.63-4.45,2.63-1.4,0-2.51-.42-3.32-1.25-.81-.83-1.22-1.95-1.22-3.35V7.74h2.21v9.21c0,1.03.26,1.81.78,2.35.52.54,1.23.81,2.13.81,1.18,0,2.11-.41,2.81-1.23s1.05-1.93,1.05-3.33v-7.81Z"/><path d="M87.86,14.91c.02,1.53.49,2.8,1.4,3.82.91,1.02,2.21,1.53,3.89,1.53,1.08,0,2.09-.31,3.02-.92v2.1c-.9.54-2,.81-3.3.81-2.24,0-4.02-.71-5.33-2.14-1.32-1.43-1.97-3.17-1.97-5.22s.66-3.75,1.97-5.21c1.32-1.46,3.11-2.18,5.39-2.18,1.21,0,2.3.26,3.25.78v2.1c-.86-.58-1.87-.87-3.02-.87-1.61,0-2.89.52-3.85,1.55s-1.44,2.32-1.44,3.85Z"/><path d="M102.65,9.53v8.32c0,1.51.71,2.27,2.13,2.27.73,0,1.37-.21,1.93-.64v2.1c-.62.34-1.31.5-2.07.5-2.8,0-4.2-1.43-4.2-4.28v-8.26h-2.27v-1.79h2.27v-3.53h2.21v3.53h3.92v1.79h-3.92Z"/><path d="M118.74,7.74h2.21v14.2h-2.21v-2.46c-.75,1.75-2.23,2.63-4.45,2.63-1.4,0-2.51-.42-3.32-1.25-.81-.83-1.22-1.95-1.22-3.35V7.74h2.21v9.21c0,1.03.26,1.81.78,2.35.52.54,1.23.81,2.13.81,1.18,0,2.11-.41,2.81-1.23s1.05-1.93,1.05-3.33v-7.81Z"/><path d="M126.53,7.74v2.49c.75-1.75,2.03-2.63,3.86-2.63.34,0,.6.02.78.06v2.18c-.39-.13-.79-.2-1.2-.2-.99,0-1.81.46-2.46,1.37-.65.91-.98,1.97-.98,3.16v7.76h-2.21l.03-14.2h2.18Z"/><path d="M143.13,19.14v2.07c-1.1.58-2.45.87-4.03.87-2.15,0-3.88-.66-5.19-1.97-1.32-1.32-1.97-3.06-1.97-5.22s.59-4.04,1.76-5.35c1.18-1.31,2.69-1.96,4.54-1.96s3.18.57,4.23,1.71,1.57,2.75,1.57,4.84c0,.6-.05,1.15-.14,1.65h-9.69c.17,1.4.7,2.47,1.6,3.22s2.07,1.12,3.53,1.12c1.59,0,2.86-.33,3.81-.98ZM141.82,13.93v-.56c0-1.18-.32-2.11-.95-2.81-.64-.7-1.51-1.05-2.63-1.05s-1.97.38-2.72,1.15c-.75.77-1.19,1.86-1.32,3.28h7.62Z"/><path d="M156.26,2.14h2.21v19.8h-2.21v-2.1c-1.01,1.55-2.46,2.32-4.37,2.32s-3.36-.7-4.44-2.1c-1.07-1.4-1.61-3.1-1.61-5.1,0-2.22.57-4.02,1.71-5.39,1.14-1.37,2.6-2.06,4.4-2.06s3.29.79,4.31,2.38V2.14ZM152.09,20.15c1.16,0,2.14-.43,2.95-1.29.81-.86,1.22-2.23,1.22-4.12s-.42-3.11-1.26-3.95c-.84-.84-1.76-1.26-2.77-1.26-1.18,0-2.15.47-2.93,1.41-.77.94-1.16,2.29-1.16,4.05,0,1.53.37,2.77,1.12,3.72.75.95,1.69,1.43,2.83,1.43Z"/><path d="M182.08,21.94l-1.65-4.96h-7.98l-1.68,4.96h-2.44l6.58-18.87h3.14l6.47,18.87h-2.44ZM173.09,15.05h6.69l-.36-1.09-2.94-9.07c-.22.8-1.23,3.84-3.02,9.1l-.36,1.06Z"/><path d="M189.44,7.74v2.49c.75-1.75,2.03-2.63,3.86-2.63.34,0,.6.02.78.06v2.18c-.39-.13-.79-.2-1.2-.2-.99,0-1.81.46-2.46,1.37-.65.91-.98,1.97-.98,3.16v7.76h-2.21l.03-14.2h2.18Z"/><path d="M200.14,9.53v8.32c0,1.51.71,2.27,2.13,2.27.73,0,1.37-.21,1.93-.64v2.1c-.62.34-1.31.5-2.07.5-2.8,0-4.2-1.43-4.2-4.28v-8.26h-2.27v-1.79h2.27v-3.53h2.21v3.53h3.92v1.79h-3.92Z"/><path d="M207.6,4.31c-.27-.27-.41-.61-.41-1.02s.14-.76.41-1.04c.27-.28.61-.42,1.02-.42s.76.14,1.04.42c.28.28.42.63.42,1.04s-.14.75-.42,1.02c-.28.27-.63.41-1.04.41s-.75-.13-1.02-.41ZM207.53,21.94V7.74h2.21v14.2h-2.21Z"/><path d="M224.36,7.74v14.2h-2.21v-12.4h-4.76v12.4h-2.21v-12.4h-2.44v-1.79h2.44v-1.32c0-1.38.37-2.47,1.12-3.28.75-.8,1.8-1.2,3.16-1.2s2.62.32,3.89.95v2.04c-1.31-.67-2.58-1.01-3.81-1.01-1.44,0-2.16.84-2.16,2.52v1.29h6.97Z"/><path d="M229.79,14.91c.02,1.53.49,2.8,1.4,3.82.91,1.02,2.21,1.53,3.89,1.53,1.08,0,2.09-.31,3.02-.92v2.1c-.9.54-2,.81-3.3.81-2.24,0-4.02-.71-5.33-2.14-1.32-1.43-1.97-3.17-1.97-5.22s.66-3.75,1.97-5.21c1.32-1.46,3.11-2.18,5.39-2.18,1.21,0,2.3.26,3.25.78v2.1c-.86-.58-1.87-.87-3.02-.87-1.61,0-2.89.52-3.85,1.55s-1.44,2.32-1.44,3.85Z"/><path d="M241.7,4.31c-.27-.27-.41-.61-.41-1.02s.13-.76.41-1.04c.27-.28.61-.42,1.02-.42s.76.14,1.04.42c.28.28.42.63.42,1.04s-.14.75-.42,1.02c-.28.27-.63.41-1.04.41s-.75-.13-1.02-.41ZM241.63,21.94V7.74h2.21v14.2h-2.21Z"/><path d="M248.07,10.71v-2.21c1.06-.65,2.46-.98,4.2-.98,3.57,0,5.35,1.81,5.35,5.43v8.99h-2.18v-1.68c-.73,1.21-2.05,1.82-3.98,1.82-1.33,0-2.39-.39-3.21-1.18-.81-.78-1.22-1.77-1.22-2.97,0-1.36.52-2.42,1.55-3.18,1.04-.76,2.45-1.13,4.24-1.13h2.58v-.73c0-1.12-.25-1.96-.76-2.53-.5-.57-1.35-.85-2.55-.85-1.51,0-2.86.4-4.03,1.2ZM255.41,15.39h-2.46c-1.19,0-2.09.23-2.69.7-.6.47-.9,1.05-.9,1.76s.23,1.28.7,1.72c.47.44,1.15.66,2.04.66,1.01,0,1.81-.28,2.41-.85.6-.57.9-1.29.9-2.17v-1.82Z"/><path d="M261.37,21.94V2.14h2.21v19.8h-2.21Z"/><path d="M274.9,21.94V3.07h2.27v18.87h-2.27Z"/><path d="M283.44,7.74v2.46c.84-1.77,2.33-2.66,4.48-2.66,1.38,0,2.48.42,3.3,1.26.82.84,1.23,1.96,1.23,3.36v9.77h-2.21v-9.18c0-1.04-.27-1.84-.8-2.39-.53-.55-1.23-.83-2.09-.83-1.06,0-1.98.41-2.76,1.23-.78.82-1.16,1.96-1.16,3.42v7.76h-2.18V7.74h2.18Z"/><path d="M299.14,9.53v8.32c0,1.51.71,2.27,2.13,2.27.73,0,1.37-.21,1.93-.64v2.1c-.62.34-1.31.5-2.07.5-2.8,0-4.2-1.43-4.2-4.28v-8.26h-2.27v-1.79h2.27v-3.53h2.21v3.53h3.92v1.79h-3.92Z"/><path d="M316.5,19.14v2.07c-1.1.58-2.45.87-4.03.87-2.15,0-3.88-.66-5.19-1.97s-1.97-3.06-1.97-5.22.59-4.04,1.76-5.35,2.69-1.96,4.54-1.96,3.18.57,4.23,1.71c1.05,1.14,1.57,2.75,1.57,4.84,0,.6-.05,1.15-.14,1.65h-9.69c.17,1.4.7,2.47,1.6,3.22.9.75,2.07,1.12,3.53,1.12,1.59,0,2.86-.33,3.81-.98ZM315.19,13.93v-.56c0-1.18-.32-2.11-.95-2.81-.63-.7-1.51-1.05-2.63-1.05s-1.97.38-2.72,1.15c-.75.77-1.19,1.86-1.32,3.28h7.62Z"/><path d="M320.59,21.94V2.14h2.21v19.8h-2.21Z"/><path d="M326.83,21.94V2.14h2.21v19.8h-2.21Z"/><path d="M333.15,4.31c-.27-.27-.41-.61-.41-1.02s.13-.76.41-1.04c.27-.28.61-.42,1.02-.42s.76.14,1.04.42c.28.28.42.63.42,1.04s-.14.75-.42,1.02c-.28.27-.63.41-1.04.41s-.75-.13-1.02-.41ZM333.08,21.94V7.74h2.21v14.2h-2.21Z"/><path d="M348.73,7.74h2.21v13.05c0,2.17-.6,3.79-1.79,4.89-1.19,1.09-2.73,1.64-4.62,1.64-1.72,0-3.18-.29-4.4-.87v-2.21c1.19.69,2.59,1.04,4.2,1.04,1.36,0,2.44-.36,3.22-1.09.78-.73,1.18-1.87,1.18-3.42v-1.6c-.93,1.61-2.32,2.41-4.17,2.41-1.62,0-3.01-.6-4.16-1.79-1.15-1.19-1.72-2.86-1.72-4.98s.53-3.85,1.6-5.21c1.06-1.36,2.45-2.04,4.17-2.04,1.94,0,3.37.85,4.28,2.55v-2.35ZM344.81,19.61c1.03,0,1.94-.4,2.73-1.19s1.19-1.97,1.19-3.54c0-1.81-.38-3.15-1.15-4.03-.77-.88-1.65-1.32-2.66-1.32-1.21,0-2.17.48-2.88,1.44-.71.96-1.06,2.22-1.06,3.77s.39,2.8,1.18,3.63,1.67,1.25,2.66,1.25Z"/><path d="M364.52,19.14v2.07c-1.1.58-2.45.87-4.03.87-2.15,0-3.88-.66-5.19-1.97-1.32-1.32-1.97-3.06-1.97-5.22s.59-4.04,1.76-5.35c1.18-1.31,2.69-1.96,4.54-1.96s3.18.57,4.23,1.71c1.04,1.14,1.57,2.75,1.57,4.84,0,.6-.05,1.15-.14,1.65h-9.69c.17,1.4.7,2.47,1.6,3.22.9.75,2.07,1.12,3.53,1.12,1.59,0,2.86-.33,3.81-.98ZM363.2,13.93v-.56c0-1.18-.32-2.11-.95-2.81-.64-.7-1.51-1.05-2.63-1.05s-1.97.38-2.72,1.15c-.75.77-1.19,1.86-1.32,3.28h7.62Z"/><path d="M370.26,7.74v2.46c.84-1.77,2.33-2.66,4.48-2.66,1.38,0,2.48.42,3.3,1.26.82.84,1.23,1.96,1.23,3.36v9.77h-2.21v-9.18c0-1.04-.27-1.84-.8-2.39-.53-.55-1.23-.83-2.09-.83-1.06,0-1.98.41-2.76,1.23-.78.82-1.16,1.96-1.16,3.42v7.76h-2.18V7.74h2.18Z"/><path d="M383.95,14.91c.02,1.53.49,2.8,1.4,3.82.92,1.02,2.21,1.53,3.89,1.53,1.08,0,2.09-.31,3.02-.92v2.1c-.9.54-2,.81-3.3.81-2.24,0-4.02-.71-5.33-2.14s-1.97-3.17-1.97-5.22.66-3.75,1.97-5.21,3.11-2.18,5.39-2.18c1.21,0,2.3.26,3.25.78v2.1c-.86-.58-1.87-.87-3.02-.87-1.61,0-2.89.52-3.85,1.55-.96,1.04-1.44,2.32-1.44,3.85Z"/><path d="M405.76,19.14v2.07c-1.1.58-2.45.87-4.03.87-2.15,0-3.88-.66-5.19-1.97s-1.97-3.06-1.97-5.22.59-4.04,1.76-5.35,2.69-1.96,4.54-1.96,3.18.57,4.23,1.71c1.05,1.14,1.57,2.75,1.57,4.84,0,.6-.05,1.15-.14,1.65h-9.69c.17,1.4.7,2.47,1.6,3.22.9.75,2.07,1.12,3.53,1.12,1.59,0,2.86-.33,3.81-.98ZM404.45,13.93v-.56c0-1.18-.32-2.11-.95-2.81-.63-.7-1.51-1.05-2.63-1.05s-1.97.38-2.72,1.15c-.75.77-1.19,1.86-1.32,3.28h7.62Z"/><path d="M419.23,19.89h8.04v2.04h-10.3V3.07h2.27v16.83Z"/><path d="M430.24,10.71v-2.21c1.06-.65,2.46-.98,4.2-.98,3.57,0,5.35,1.81,5.35,5.43v8.99h-2.18v-1.68c-.73,1.21-2.05,1.82-3.98,1.82-1.33,0-2.39-.39-3.21-1.18-.81-.78-1.22-1.77-1.22-2.97,0-1.36.52-2.42,1.55-3.18,1.04-.76,2.45-1.13,4.24-1.13h2.58v-.73c0-1.12-.25-1.96-.76-2.53-.5-.57-1.35-.85-2.55-.85-1.51,0-2.86.4-4.03,1.2ZM437.57,15.39h-2.46c-1.19,0-2.09.23-2.69.7-.6.47-.9,1.05-.9,1.76s.23,1.28.7,1.72c.47.44,1.15.66,2.04.66,1.01,0,1.81-.28,2.41-.85.6-.57.9-1.29.9-2.17v-1.82Z"/><path d="M445.72,2.14v7.73c1.03-1.57,2.46-2.35,4.31-2.35s3.26.69,4.4,2.06c1.14,1.37,1.71,3.17,1.71,5.39,0,2-.54,3.7-1.61,5.1s-2.55,2.1-4.44,2.1-3.36-.77-4.37-2.32v2.1h-2.21V2.14h2.21ZM449.89,20.15c1.14,0,2.08-.48,2.83-1.43.75-.95,1.12-2.19,1.12-3.72,0-1.75-.39-3.1-1.16-4.05-.78-.94-1.75-1.41-2.93-1.41-1.01,0-1.93.42-2.77,1.26s-1.26,2.16-1.26,3.95c0,1.89.41,3.26,1.22,4.12.81.86,1.8,1.29,2.95,1.29Z"/><path d="M87.99,58.14h-17.94s-.03-.01-.03-.03v-23.65s.01-.03.03-.03h5.94s.03.01.03.03v17.65s.01.03.03.03h11.94s.03.01.03.03v5.94s-.01.03-.03.03Z"/><path d="M52.59,58.14c-.77,0-1.54-.29-2.12-.88l-12.73-12.73c-1.17-1.17-3.07-1.17-4.24,0l-12.65,12.65c-.93.93-2.38,1.26-3.55.65-1.9-1.01-2.16-3.42-.77-4.81l12.73-12.73c3.51-3.51,9.22-3.51,12.73,0l12.6,12.6c1.14,1.14,1.33,3.01.27,4.22-.6.69-1.43,1.03-2.26,1.03Z"/><path d="M4.21,59.36L0,55.16s-.01-.03,0-.04l16.93-16.93s.01-.03,0-.04L0,21.22s-.01-.03,0-.04L21.18,0s.03-.01.04,0l4.2,4.2s.01.03,0,.04L8.49,21.18s-.01.03,0,.04l16.93,16.93s.01.03,0,.04L4.25,59.36s-.03.01-.04,0Z"/><path d="M62.38,58.14c-1.64-.07-2.87-1.55-2.87-3.19v-17.32c0-1.64,1.23-3.12,2.87-3.19,1.72-.08,3.13,1.3,3.13,3v17.71c0,1.7-1.42,3.07-3.13,3Z"/><circle class="cls-1" cx="35.27" cy="54.25" r="4"/></svg>